<mxfile host="app.diagrams.net" agent="Mozilla/5.0 (Windows NT 10.0; Win64; x64) AppleWebKit/537.36 (KHTML, like Gecko) Chrome/132.0.0.0 Safari/537.36" version="26.0.11">
  <diagram name="Page-1" id="6wUuP2hYYbD5uYuCXLZt">
    <mxGraphModel dx="1687" dy="925" grid="1" gridSize="10" guides="1" tooltips="1" connect="1" arrows="1" fold="1" page="1" pageScale="1" pageWidth="1100" pageHeight="1700" math="0" shadow="0">
      <root>
        <mxCell id="0" />
        <mxCell id="1" parent="0" />
        <mxCell id="5OMFKONNakUogNdtF4Db-82" value="" style="shape=note;whiteSpace=wrap;html=1;backgroundOutline=1;darkOpacity=0.05;" parent="1" vertex="1">
          <mxGeometry x="617.5" y="579" width="115" height="261" as="geometry" />
        </mxCell>
        <mxCell id="5OMFKONNakUogNdtF4Db-81" value="" style="shape=note;whiteSpace=wrap;html=1;backgroundOutline=1;darkOpacity=0.05;" parent="1" vertex="1">
          <mxGeometry x="264.7" y="583" width="115" height="257" as="geometry" />
        </mxCell>
        <mxCell id="5OMFKONNakUogNdtF4Db-67" value="" style="shape=note;whiteSpace=wrap;html=1;backgroundOutline=1;darkOpacity=0.05;" parent="1" vertex="1">
          <mxGeometry x="65" y="300" width="115" height="240" as="geometry" />
        </mxCell>
        <mxCell id="5OMFKONNakUogNdtF4Db-26" style="edgeStyle=orthogonalEdgeStyle;rounded=0;orthogonalLoop=1;jettySize=auto;html=1;strokeWidth=3;" parent="1" source="5OMFKONNakUogNdtF4Db-13" target="5OMFKONNakUogNdtF4Db-5" edge="1">
          <mxGeometry relative="1" as="geometry" />
        </mxCell>
        <mxCell id="5OMFKONNakUogNdtF4Db-13" value="" style="rounded=1;whiteSpace=wrap;html=1;labelPosition=center;verticalLabelPosition=middle;align=center;verticalAlign=top;" parent="1" vertex="1">
          <mxGeometry x="30" y="80" width="180" height="200" as="geometry" />
        </mxCell>
        <mxCell id="5OMFKONNakUogNdtF4Db-4" value="&lt;b&gt;&lt;font style=&quot;font-size: 28px;&quot;&gt;EUREKO DATA DICTIONARY FLOW&lt;/font&gt;&lt;/b&gt;" style="text;html=1;whiteSpace=wrap;overflow=hidden;rounded=0;" parent="1" vertex="1">
          <mxGeometry x="299.4" y="10" width="490.6" height="50" as="geometry" />
        </mxCell>
        <mxCell id="5OMFKONNakUogNdtF4Db-5" value="" style="shape=cylinder3;whiteSpace=wrap;html=1;boundedLbl=1;backgroundOutline=1;size=15;" parent="1" vertex="1">
          <mxGeometry x="345" y="80" width="115" height="200" as="geometry" />
        </mxCell>
        <mxCell id="5OMFKONNakUogNdtF4Db-17" value="" style="shape=actor;whiteSpace=wrap;html=1;align=left;" parent="1" vertex="1">
          <mxGeometry x="90" y="120" width="60" height="80" as="geometry" />
        </mxCell>
        <mxCell id="5OMFKONNakUogNdtF4Db-20" value="&lt;ul&gt;&lt;li&gt;Business Units&lt;/li&gt;&lt;li&gt;ES-CIS&lt;/li&gt;&lt;li&gt;Vizyoneks&lt;/li&gt;&lt;/ul&gt;" style="text;html=1;whiteSpace=wrap;overflow=hidden;rounded=0;fontSize=14;" parent="1" vertex="1">
          <mxGeometry x="48" y="195" width="140" height="70" as="geometry" />
        </mxCell>
        <mxCell id="5OMFKONNakUogNdtF4Db-23" value="&#xa;&lt;span style=&quot;color: rgb(0, 0, 0); font-family: Helvetica; font-style: normal; font-variant-ligatures: normal; font-variant-caps: normal; letter-spacing: normal; orphans: 2; text-align: center; text-indent: 0px; text-transform: none; widows: 2; word-spacing: 0px; -webkit-text-stroke-width: 0px; white-space: normal; background-color: rgb(251, 251, 251); text-decoration-thickness: initial; text-decoration-style: initial; text-decoration-color: initial; float: none; display: inline !important;&quot;&gt;Dictionary Created Users&lt;/span&gt;&#xa;&#xa;" style="text;html=1;align=center;verticalAlign=middle;whiteSpace=wrap;rounded=0;fontStyle=1;fontSize=13;" parent="1" vertex="1">
          <mxGeometry x="10" y="90" width="220" height="30" as="geometry" />
        </mxCell>
        <mxCell id="5OMFKONNakUogNdtF4Db-24" value="&lt;b&gt;Esgate&lt;/b&gt;" style="text;html=1;align=center;verticalAlign=middle;whiteSpace=wrap;rounded=0;fontSize=14;" parent="1" vertex="1">
          <mxGeometry x="372.5" y="170" width="60" height="30" as="geometry" />
        </mxCell>
        <mxCell id="5OMFKONNakUogNdtF4Db-25" value="Data Source" style="text;html=1;align=center;verticalAlign=middle;whiteSpace=wrap;rounded=0;fontStyle=1;fontSize=14;" parent="1" vertex="1">
          <mxGeometry x="353.75" y="80" width="97.5" height="30" as="geometry" />
        </mxCell>
        <mxCell id="5OMFKONNakUogNdtF4Db-27" value="" style="rounded=1;whiteSpace=wrap;html=1;labelPosition=center;verticalLabelPosition=middle;align=center;verticalAlign=top;" parent="1" vertex="1">
          <mxGeometry x="580" y="330" width="180" height="200" as="geometry" />
        </mxCell>
        <mxCell id="5OMFKONNakUogNdtF4Db-28" value="" style="shape=actor;whiteSpace=wrap;html=1;align=left;" parent="1" vertex="1">
          <mxGeometry x="640" y="374" width="60" height="80" as="geometry" />
        </mxCell>
        <mxCell id="5OMFKONNakUogNdtF4Db-30" value="End Users" style="text;html=1;align=center;verticalAlign=middle;whiteSpace=wrap;rounded=0;fontStyle=1;fontSize=14;" parent="1" vertex="1">
          <mxGeometry x="560" y="340" width="220" height="30" as="geometry" />
        </mxCell>
        <mxCell id="5OMFKONNakUogNdtF4Db-31" value="&lt;ul&gt;&lt;li&gt;All Data Users&lt;/li&gt;&lt;/ul&gt;" style="text;html=1;whiteSpace=wrap;overflow=hidden;rounded=0;fontSize=14;" parent="1" vertex="1">
          <mxGeometry x="595" y="454" width="150" height="70" as="geometry" />
        </mxCell>
        <mxCell id="5OMFKONNakUogNdtF4Db-32" value="" style="shape=image;verticalLabelPosition=bottom;labelBackgroundColor=default;verticalAlign=top;aspect=fixed;imageAspect=0;image=data:image/png,iVBORw0KGgoAAAANSUhEUgAAAdAAAAHjCAYAAACTs04DAAAyq0lEQVR42u2dB9QdVdWGdxIILfTQuxDpvfeAgHQElV4FQUGkiFSBABYQpSMC0quU0KQoSO+995KEGiBAaCEE4r9f9slPlpKQL3fu3Jkzz7PWuxQl8H13Zs5zz5lz9jYDAAAAGAszepb2rOn5oWc7z04pP/Vs79nS8wNPX8/8nik83fjoAACgCUzr2cVzhud+z5OepzzPe17xDPK87nnT89Zo0V+/4XnNM9DzkufZ9GeVWz3HezbyTMzHDAAAuTCP52DPHZ5XPcM8/yk4HyURX+XZyjM9HzsAANSNFT0HeY71nOy5wTO0DdIcU17wXOE5If0Mh3s298zOpQEAgCqylOdXnjtLlOW4Rku/F3h29yxr8d4VAACgY2gzz8oW7zZvraA4vykSvN6Zbm2xcWkhz1RcSgAAKINJPXN49vZ8UhNxjil3e/b3rOX5rmcmTy8uMQAAFEl3i92023qeqbk4vyn6MnCN5xeePumLQs/0ewMAAIw3S3juS6L5MkOBKp97PrXY+PSg5xDP4kgUAADGBxUt2Nfzcsbi/KaM9LyXfm8t9R7pWd8zG7cEAAB8G6oSdLZncIPEOaZ8YFHEQTK9zuK4zM89E3GbAADA6GzouQlxjjWqnnSexXtTLfVOw20DANBctHFGtWhz3CjUrqjCkopG/NVzmOdnFsdkWO4FAGgIM3j2QoiF5KUkVJ057WtfF8IHAIDM0BnIPyO+tuX29OVE5017eybz9OC2AwCoNyoe8EckV0re95zj2dmzjEUlJC2bT2AclwEAqB2/t/Z0SiHfnOGejy3Om77jucuia41KI7KrFwCgJhyeZkWIrXPR+dohngEWvVLP8izPrQkAUF32SwM3EqveDPVhT3/PcZ4dPat6ZuGWBQDoPGrtNQhZ1SK6TiqjeKVFN5m1uX0BAMpHG1V0pOL6NNNBUPXL4xaNy3/q2dSziGdybm0AgPYypecyJJRVrk9C3SDJdGaLnb0AAFAQOne4GsLJfnZ6imdzi4bhs6XZKUdkAABaYD7PnUimUXnNs49nAfu6v2k3HgUAgHFnOs8RnhFIpVFRWzadOX3b80/PgZ4VkSgAwLizrufdig7yb3lu81zqOd1zsudUz7kWrcOesGh0jRBby4h0D6hO7yOe+z2XW5QYXIFHBADgf5nWc1KFBnKJUgUctvVsbFFsfVFPH8/sFucd9e5uLoulRx25Wctix+kvLTqenJ1EgBhbzxuehzxHeebgcQEA+Bodd3itAgO1Zjtq9TWvZ5IWfp9J0kC/vudQi12oHyLCQioiXWVRF1nlHXf3rOGZk0cIAJqIRPPvDg7Kw9O//3eeudv0Oy7s2TvNSq8xlnyLFKpmpud7fmWxg3t2HikAaAoq19epd5/PW7zPLHNZUJ1l1rFozXaT50HPsxabaEYixZav52mezSw2ImklYVIeMQDIlf4dmnXebfFus9NMnQb7Azw3e940KjAVlTs8P/EsadGMfWqECgC5oB6T15Y8qH5ucVxihgp+HjoDuWz6+bTE+4XFMuVIZqctRZ/jAxZdZPS+XZWQehhnTgGgxhzr+aTkmacG0ekrPHDqS8VU6Wdc3KLTyV89zyHCliWqnrLazKXl8oEWJSN/6JmMRxEA6kK3NNN61so9sH+F1a/llgb3mTwLWpyV1e7TBxFiIfksiVTL+b/2LMWjCQBVR8tnf7KoQFPWYHm7xZnNutPbs3SaOWnQv9rzDjJsOYMtCjfomMyFnjM9e1j7dmYDAIwXWqZ80uL9XhmD49OeVTL9LFWQXYXZtQlJS73/stiIhBRbz5D0BUVHZFa22IQEANBRtHnjg5IGwQ/TTK0JTGhRMWlni44n2uGsc5JDkWHLucdznH3d41Q7p2fmUQaAMtH7T22SKWvZ8UqLLi9NRTNvFYnQLtRBFu/9EGLr0QrKiZ6tLOr0zscMFQDKmCWtUdIM9JM0wEGUF9zac7FFjV6VTtRS7/sWR3uQYmvRxq79LTZ7qbOQzpv24LYDgCJRJZ49PR+VMKjpneBsfORjZNok1VsRYKHRsrk2IKmE40TcZgBQFNNY7HAcVsJAtoHF+1YYMxOnLxnbWJyLpB9rMWdO9d5Z501f9Jzn2c2zTPq8AQDGCxUIuDcNMu0cxPSOdWk+7nFGS7wqxK6zkCskoZ6UZqdlbfjKNaoqpeVyFcPQUq8qTW3LLQcAXeW7Vs7yrWZTc/Fxt4SKTixmUfxercPOLenaNSEvW5w31RGZZdMXSwCAsbJMSQPUztZaT0/4X/SFRMXZtatXm5HUlo0ava1laJrlX5hm/P08P/LMyO0GAKOj95FrlzAoqUADZdnai3aa6h3zUZ4bPI8ZFZGKyhsWG+BUB3ljzyLGERmAxjNpmsG0u+btAOOQe5lM7lndc2CSqYoOPGyxiQYhth41fD/U4kyvSgtqI94E3HYAzUIFFH7d5sFGHVe0vMg7pc5/WdrXosm1lik/s/JKN+acWz2HWDQWmCetBOgLTE9uOYC8kdT+YO3f8XhUkjV0lm7pmu/kucDzjLV/93UTMqo/rD7LFzzHW2z0olk4QMZoY8QxbR5c1OHllxYFG6A6s1EtO6otm47KqFrPzy2WehFi6zLVPf92kunJnuW45QDyFOixbR5QVDxeZ+zYgVtt9AVH9WO1qey3Fj05EWLr+SjN9O/yXOv5jWczi649AIBAv1WgPzYqvtQJzU61a1p1i/dM98j1FvV6kWLrLdn0HvoOz2meH3C7ASDQsQl0EwRaa6a0KOCgtmGHWezsfR0ZFpKnLN6ZqvD9Dp6VLApmAAAC/UqgP0SgWTG/RR/O8z2Xeu6zeO+HEFuLdkbrPfTpaebf1/Mdi45JAIBAIUMWS7MonTV9Mc1O3zN2+LaaVyzKNeqstupIz2txRAYAEChkRo800Ovd6REWBQdUxecTZFhI9O5UXWTmsFhW125qzpsCIFDIBJ017Z5kquo8s1rU6qWsYDFHZNTeTk3Xr0tfUjb09Oa2A0CgkCeaLem86ZoWR2T+mSSAFFur8KVnS+dNB6XZ6TWen1l0WAIABAqZzU41W1LJOy316szpXhbv+T5EioU0Dtf758fScz0vtxwAAoV80X2hguwbeQ7w3IhMCyuheYvnDIvzpnrOVdBkEW45AAQKebKkxRGZIz1nWxQcYLm3mGipV2d4VZt6DaMlGwAChWzR+cdlLbrIXJBmp48abdmKyOOeP6VZ6Ubpc56OWw4AgUKeTGZRqUdVe+60OCf5KTIsJE9b7JbWs7qwxaavKbnlABAo5MmqnvMsliZVY/YDizOnnyPElqIl8xvSzF/vTKdJX16oiASAQCETuqdBfSKL5ce+adC/EQm2fN70y/RFROUFB3hOsNg1zXMMgEAhQyRTlbqb2bOy52jPQIRYWFu2tzwvWZRt3CCNHwAIFIFChsxgsav3e55dLJZ7X0CGhTzTqnl8v+dmiwIOh3j6cMsBAkWgkCdzJ5lubXHm9EzPqwixkOj98788+1js6J2M2w0QKAKFfJnJs7lFeUFVQ3rI2NXbaoZ5bvWc4jnI80vPxhbVpwAQKAKFDFFXk7WSTCWAJ40CDkVFHXl0jnd3i+L3S3im5ZYDBIpAIT90/lFLvb+3OG/6WBKqlns5ItN6HvH086xo0a2nl8WOagAEikAhU9azOB+ps6YjEGHL0ZcRtWVTB5nlLI4iaRf1JBat8AAQKAKFTFCPU9WP/Uka+L9AgoV0kFFrNr07/djiPfSfLZbTJ+GWAwSKQCEvJk3PjjbGqPemzpweONrsFDGOf75MY4bem+qojI7JbMEtBwgUIF80M53Ps5pFNaQrkGFhedmiCbtmpjqCtJTRSQYQKECWqLTgAmmw38/zN8/dxq7eIt6ZqhLSnekLyumenS1q9QIgUIAM0eaYVSw2y6jBtWr1voIQC8mQ9AVF50239CzvmZ5bDhAoQJ5oqXd7i7ORV3tuM3qcFhFtRrorjWk/9ixtcUxmIm45QKAAeaJzpyot+KDF5pn3LLqgIMXW8pxFRSR9WVnBM6+nt3FEBhAoQHZMnp6V33iu8rxp0QVFRzy+RIgtZ6hFJxntmp4qzUx1NKkbtx4gUIB60y3NjlRWUGcge6VndEfPEwiwkD6nWubVUaOHLSpNrZ4+ZwAECpAh6mzyHYtKSEd67kCGhchUHWRe8zxvUa7xfItuMqtwywECBcgP7TBdyKJSjzrJ6JiMjnM8hBQLOSajpuGqe3yORa1eAAQKkCl6jzebxXs9NQ0/N82qEGLruddiE9LRFkeQ1rXYQQ2AQAEyZBbPthZVeyRTFR34ABkW0jBcy7z9Ld6dqsfpnNxuCBSBAuTLkp6DPdd67vM87RmMEFuOPsMzPTt51vQsblEwAxAoAgXIEBUVUJ/T/T23W9SY/QgZFhK9N1Uz9lU9syeZTsYth0ARKECezOw52eJ85KcWxRu0kYYzp61FR47OsqjTO38Sqca/CY3G4QgUgQJkgc6d6rypdvau5PmF5zSLikiIsLWWbJ+nLyUa/1SmUUvoe3jm5rZDoAgUIC9UkWfyJNO5LFqGqUD7LQixsDq973he8BznWZZbDoEiUIB8UYWeUWdOd7MoL0jR+2LGxEctepxe6bnEc5DFUSRAoAgUIEMkUx3f2CuNGxr8actWXJ1enTv9k8V500m53RAoAgXIE9XsVXeTLSwKDVxm8e70XWRYyCYkjcu7W9RB1s7pOS2W2QGBAkBmaMa0mkVpQfU41XnTYciwkOi9qc6c6p20ltMX9UzLLYdAASBPJNOzLc5HvugZYFFn9hOE2HL0/rSfRa1ezUynMHqcIlAAyJaZPGunmdT7nhEWHVEQYmvRkrmasauDjDZ99Uwy5bwpAgWATNCZUxUSUFEBnTk9JY0NSLD1tmw6b6pNSG94/m5xnnfp9HkDAgWAjNBmGJ03XcCiVq/asp1oUV5wKFJsKXrvrKNGKtOozUh3eQ6zqDoFCBQAMqN7GuAXsXh3qm4yf0wzKqTYeoZYNGH/ncVZU47IIFAAyJipPZt4DvWcb7Grl3emrc9O7/Gcl8Z9tWVTn9OFud0QKADkyQyejSzasl1s0eOUpuHFRO9P/2HRoWczi3enU3PLIVAAyA9tRlrMs2uS6b/t69ZsCLH16MvJEZ4NPAtanDftyW2HQAEgX7Tce5PnTc/HiLCQPGCxhK5NXkt4ZvNMg1ARKADkyXoWR2Q0Ix2eojOn9DhtPap7rHZ3qoY0pX193rQbAkWgAFB/NDtSQQEtPU5n0X9zB88VCLCQPqfaiPSBZ5DnIs/6Fmd7ESgCBYAM0bENLT8u79nHcx0yLGxX70CL0oKXWyz3aim9DwJFoACQH2oavkCaOf3Ec4znRouC7Uix9fOmz1kUb+hvUfx+CgSKQAEgT7QpRtWQ1INzT4tlyQHIsJCoItIFFudNf+rp65kVgSJQAMgTDfBbe473nGNf7+xFiK1FO6Pvs+jQo2X0NXOQKQIFABgzc3j28txmUQ3pVaNpeBHR5/gXz1YW76ZnRKAIFADyREc1lvJsb9GL82aLnah67/cFQmw5mvEvZDV7Z4pAAQDGDx2ZUZGBxyyOeCjU622tt+lvLXZM97AanC9FoAAA489EFp1kVMDhaM8tns+Q4XjnE887noctuvIgUAQKAJmj5tUq3PAdi1q9fS06nZzheR4xjldet+jEMwMCRaAA0LzZ6ZwWPTh/7jnL8xZi7HL1I+2E/o1FE3YECgDQQGb3bOo5wHOyxUYkhDruS7vqvrMsAgUAaDYqwq4CDrt4TrcoL/iQ5w1kOdboS8eGFrWOESgAANhUnpU8e3iu8jziGYowx1iUYf8qSBSBAgBUD43NqtP7SpqVvp2EOhyBfhV9Fmr8PX2nLxICBQCoJuq5qXORfT17e65lZvo/Tb8nQKAAAPBNqKCAjsmoLZuK389rUV7wGQT61Znby9PngkABAOBbUcm7BdLMVJ1OTvU821CJallb74znQqAAANAVRi3zahPSFhYbkU70PNkwkZ5rJb8TRaAAAPnR2/N9iwIEasv2oMXu1ZwF+rlFu7T5ESgAABSBlnvXsijgcEmS6XsZi/QEi2NBCBQAAApF1XwO89zgucei0bXen+ayu1e9RnctwzkIFAAAFrGvz53mcNZUv8eGCBQAAMpAx2VW8fT3fJqBRB9FoAAAUBY6b6ozlbNY7OxdxvNrz2We92sm0GEWHXAQKAAAdARtyJnTs5RnJ89FVp8dve961rdoLYdAAQCgY/Tw9PFs4NnNooDD/RWfnT7hmRKBAgBAlZjBohrSdhabkPT+9PkKSnT7djgIgQIAQFHM6tnMohKSatQ+bFHgoNMCfcqzIgIFAIC6sILnDM9LnpEdlqhcV2jReQQKAADtZl3PnRbvSkd0SKAve9ZGoAAAUCe6WxS9X9mi+lEnBKoZ8B4IFAAA6ogkqjZs/TskUZ0LnRmBAgBAXVHvzj2t5iX+ECgAAHQCFTfY28pfxj3J0xOBAgBAnVH9XbUfK/Ooy3OedRAoAADkgCRaZgH70xAoAADkgDYX3WrlnRW90QpYxkWgAABQBXbxDCxJoKqQtBgCBQCAHFCh+j+UNAsd5NkZgQIAQC6oOP3lJQh0uBXQKxSBAgBAlTjaylvG7Y5AAQAgF3ZJ3mi3QFXgfiYECgAAubCoxS7ZMqoSLYlAAQAgF3S8ZB8rZyPRGggUAAByYhXPO2120+uejREoAADkxDyeC9vspjc82yFQAADIiak9h7bZTYM9uyFQAADICfniF212k5aI90agAACQE+rSsl2b3fSu50AECgAAubF5CQI9GIECAEBubFyCQH+DQAEAIDc2QKAIFAAAus6GCBSBAgAAAkWgAACAQBEoAAAgUAQKAAAIFIECAAACRaAIFAAAECgCBYCgh6e3Zw7P3J4+Kfrr6TwT8REBAkWgAE1nAs/kSYyzexZKz/XhnrM9l3uu9lzlOcfzW8+2nqVHE+oUngn5KAGBIlCAnOmWpDmJZ3rPap49PWd4Hu/iGPCU5yzPfp41PNOkf27P9O8BQKAIFCAbNFvcwXOXZ6jnY88wz3DPl10cA/T3f57+/Mfpn/eI54A0BgEgUAQKkAV9PbdaNBz+ok3jwkjPkDSb3YWPHBAoAgWoMz+weIf5RJvHhP/OIM+Fnq093bkMgEARKEBd0HLtQRbvKv/TwbxksQFpYS4JIFAEClB1+npOtHi3+Z+K5BrPusaOXQSKQBEoQEX5XgVmnWPKs54tPJNxmRAoAkWgAFVBx0eW8TxfUXmOykDPjp6puGQIFIECQKdR9aA1Pa9XXJ6jjx+HpJ8bECgCBYCOMZfnVYtjJP+pSbS5aGsuHQJFoADQKVR+77kaiXP0QgzPeDbjEiJQBAoAZTOD54YaynP0PO35LpcSgSJQACgLFXLvV3N5jsrFnl5cUgSKQAGgrIHorUwEqmzKeIJAESgAtBsdATklI3kqD1gcwwEEikABoC2oVZh6cg7KTKDKoUbDbgSKQAGgTcxs0eT6PxnmXs/KXGIEikABoB382apV47bIjPDsxSVGoAgUANrBVZnKc1TOT7NsQKAIFAAKQ+c+78xcoG8aFYoQKAIFgILZ2PNi5gJVTuZSI1AECgBF8jfPJw0Q6HVGtxYEikABoAC6JaE80wB5Kg9b9DUFBIpAAaAlJrBoV/ZaQwSq96B7ctkRKAIFgFZRs+z9PEMaItAvjPegCBSBAkAB6Dn7q+ejhghUuZ7LjkARKAC0yqSef1i+BRS+KXd4JuTSI1AECgCtMJnnLoulzaYI9B5jJy4CRaAAUIBAn/CMbJBAH/TMwaVHoAgUAFoV6CsNkqfyqGdBLj0CRaAA7aXbaMmRXp6BDRPoY56FuLURKAIFaF2Qk1i8E5veM4tnds8inlUtDt2vnrJymrno/1dR8mnTDK7OG1L08z/XMIGqmEIfbn0EikABxp8J00CqJtJ/TQPrZ+N4n77vucazb5LrhDWdpUqgzzdQoN/l9kegCBRg/NAS3kWet5IMP7Wu70Qdnu5XPVgvWxQkqNt9i0ABgSJQgG9lWc+Jnts9T3uGFXzvvm2xw1MFy3f1TIFAESggUAQKdaaH5xDPfTbuS7St5lXPxZ61ESgCBQSKQKFuTGRfv9/sVKWdRzz9PMshUAQKCBSBQh3QbtqDPB9UZNC+zbO+pzsCRaCAQBEoVBUNjidWcODWcZFtPL0RKAIFBIpAoUroGMm8Fht5qjyAH2VRwACBIlBAoAgUKsFcFlVmqj6Aq+7s7xAoAgUEikChCsxvURS9Ll1F1H/zEgSKQAGBIlDoJCqp92QNB3I9kD9BoAgUECgChU4wueecmg7kX1psLNoegSJQQKAIFMpkSs+eGQzogzyLWRR8QKAIFBBoSwL9EQKFcWC9JJ8cBnVVLerE8RYECgi0RIEeU4JAN7aoIgMwtnvxwswG9k06cN8jUECgJQl0Os9v2/xDDvWsZvXusQjtZcK0dDsis4FdtXrLLvmHQAGBliRQHf7erc0/pFpLqZlxd+4HGANqdH1PhgO7zoceVPK9j0ABgZYkUD3YG5TwQ07GvQBjQcXhP890cL/DswwCRaCQn0DF3J5XLLbgt+OH/IDlW/gWrsh4cFeP0n0QKAKFPAWqB+5Iz6dt+AE1q7jWMwH3AoyBPp67Mh/gL/JMj0ARKOQn0B7p5mtHY2I1IV7Roig4wDehxthDMh/gn7Z4VYJAEShkJtBR9C/4h/vYqlNgG6rJ1Jbn5qH/jr6c/h6BIlDIU6CaIc7pudrzSQE/mJaDz/ZMwj0AY7nnNvO80ZBBvqxC8wgUEGgHZqBCu3Ivs9bO4w33XJqEDDC2e+2stFLRhEFeX07LKO2HQAGBdkigYmmLrffj+0NJwH2M954wdiSTZxo0yN9q0d8UgSJQyFig2jGrsmpreW7vwg+jowh9LaobUTQBxkWgbzZskF8VgSJQyFugo9AMUk2Nt7TYhv/qN/wAAzwnejZPs06Artxfgxs0yD+fnhMEikChAQIdHcnx+54dPbukqHHwmp6ZuM4wHkzqeatBg7xm23sjUAQKzRMoQNHM4nm7QYO8KnL9FoEiUECgAK2g5VuVkHynQYO8dhv/GYEiUECgAK0KdJ6GCVTnq49HoAgUECiUI5lcjwJpl/YC6QZukkCPQ6AIFBAotBdtsFGZuxksqjnldixIXwy+08AZKAJFoIBAoUWm9GzvOdnigL2KjT+XosHvRc9LnpfTf39htP9fxQduT392G6tnuUQEikARKCBQ6DI7ee72DPR8ZK1tShngudOzHgJFoAgUECgCzY2e6Ub4o+e8JM6ib4THPWdadL/Red2qNzBHoAgUgQIChbGyrOdoz1MlDiYPeQ73LIxAESgCBQSKQOvGnBbvJ2/t4KByjefHnpkRKAJFoIBAEWjVUYH0eT3nVGhwUa3iqtUpRqAIFIECAoX/p2dasr25ggPMRWlJtycCRaAIFBAoAq0ae3he83xRwQFGDdLf9+yAQBEoAgUEikCrxNYWZzSrPtBoM9NGCBSBIlBAoAi0CuxqUQihLoPNE57tECgCRaCAQBFop+ieLvCgGg44j3iWRKAIFIECAoVOsIzn0ZoOOHpPe51nMYudwwgUgSJQQKBQCmrF9fcMBp5rPTMiUASKQAGBQhmoU8qhGQ0+m3omQKAIFIECAoUyLuorGQ0+d3gWQqAIFIECAoV2D05qI/ZlRoOP3ofuY+W2RUOgCBSBAgJtGLt7PshwAJLI1kegCBSBAgKFdnF2xoPQUWnwRaAIFIECAoVC0W7VGzMehFRJ6fsIFIEiUECgUDR7eV7PfCA6CoEiUAQKCBSKnn3e14CBSOdCy+gfikARKAIFBNoQ+nmGNGAgetGzFQJFoAgUECgUxZMNGYiGe45EoAgUgQIChaJ4uUGDUX8EikARKCBQKIJenoENGoyuQqAIFIECAoVW6Z4ezNcaNBj9A4EiUAQKCBRaZULPGp7BDRqMbkCgCBSBAgKFVpnIs2X6oJsyGP0TgSJQBAoItD3oneBMFj0x5/MskKK/nsUzRRogcxHojtaMIyyj8q8Srh8CRaAIFLIX6MSeqS0KCUiQq3l+5jnBc7XnVs+dKdd4/uLZw7OOZ0GLQ/nTWPTQrCP6/Xf1vNegwUjlCtvdHxSBIlAECtkJtFsaPHumWeYWnhOTKId18Ycb4XnUc6pnZ8+caUY3QY1mqGrxtafnfQSKQBEoAgUEOjbm9vzOorC4li0/TOIcMZ4/oHpNfub5KM3i9ANfnJZ+ESgCRaAIFIFCFgLVZpl7S5CFhPyMZ18EikARKAJFoFBngUqcl3teKvmmH5z+vftbbDxCoAgUgSJQBAq1EKh2zPbzvNDhm3+o5wLP8ggUgSJQBIpAoeoCXclzVsUegps921RsNopAESgCRaCAQL9CA+P3PE9UeJBR4+qpESgCRaAIFIEi0KoIVDL4vmdAxR+GTy3ei06FQBEoAkWgCBSBdlqgGhB1prMuNV11bOZPnh4IFIEiUASKQBFopwSqwXBli44iI2v0UGhwPQKBIlAEikARKALtlEC1KefFmj4YWm7eEoEiUASKQBEoAi1boFN6Tq75w/G0ZwnrTPk/BIpAESgChQYKdFrPAZ7PM3hAbvLMgUARKAJFoAgUgZYh0B953sroIdktCQ2BIlAEikARKAJtm0Bn9fTP7CF50LMMAkWgCBSBIlAE2k6BHprpg9LPokcnAkWgCBSBIlAEWrhANehfnOmD8lr6UBEoAkWgCBSBItDCBbpaWu7M8UH50nMwAkWgCBSBIlAE2g6BnmrRczPXh+Uqz7wIFIEiUASKQBFokQJVofjnMn9YhljsyEWgCBSBIlAEikALE6hmZ8Mb8MBc6OmFQBEoAkWgCBSBFiHQnp6BDXpgVkGgCBSBIlAEikCLEOhcVt+at+Pzi++HQBEoAkWgCBSBFiHQNTyDGvLAqKvM6QgUgSJQBIpAEWgRAt3G80bDBnoEikARKAJFoAi0ZYHu37ABCYEiUASKQBEoAi1EoEd63kOgCBSBIlAECgi0awI93vMBAkWgCBSBIlBAoF0T6EkIFIEiUASKQAGBdl2gJyJQBIpAESgCBQSKQBEoAkWgCBSBIlAEikARKAJFoAgUECgCRaAIFIEiUECgCBSBIlAEikABgSJQBIpAESgCBQSKQBEoAkWgCBSBIlAEikARKAJFoAgUECgCRaAIFIEiUECgCBSBIlAEikABgSJQBIpAESgCBQSKQBEoAkWgCBSBIlAEikARKAJFoAgUECgCRaAIFIEiUECgCBSBIlAEikABgSJQBIpAESgCBQSKQBEoAkWgCBSBIlAEikARKAJFoAgUECgCRaAIFIEiUECgCBSBIlAEikABgSJQBIpAESgCBQSKQBEoAkWgCBSBIlAEikARKAJFoAgUECgCRaAIFIEiUECgCBSBIlAEikABgSJQBIpAESgCBQSKQBEoAkWgCBSBIlAEikARKAJFoAgUECgCRaAIFIEiUECgCBSBIlAEikABgSJQBIpAESgCBQSKQBEoAkWgCBSBIlAEikARKAJFoAgUECgCRaAIFIEiUECgCBSBIlAEikABgSJQBIpAESgCBQSKQBEoAkWgCBSBIlAEikARKAJFoAgUECgCRaAIFIEiUECgCBSBIlAEikABgSJQBIpAESgCBQSKQBEoAkWgCBSBIlAEikARKAJFoAgUECgCRaAIFIEiUECgCBSBIlAEikABgSJQBIpAESgCBQSKQBEoAkWgCBSBIlAEikARKAJFoAgUECgCRaAIFIEiUECgCBSBIlAEikABgSJQBIpAESgCBQSKQBEoAkWgCBSBIlAEikARKAJFoAgUECgCRaAIFIEiUECgCBSBIlAEikABgSJQBIpAESgCBQSKQBEoAkWgCBSBIlAEikARKAJFoAgUECgCRaAIFIEiUECgCBSBIlAEikABgSJQBIpAESgCBQSKQBEoAkWgCBSBIlAEikARKAJFoAgUECgCRaAIFIEiUECgCBSBIlAEikABgSJQBIpAESgCBQSKQBEoAkWgCBSBIlAEikARKAJFoAgUECgCRaAIFIEiUKiDQE9CoAgUgSJQBAoItOsCPQ6BIlAEikARKCDQrgv09573ECgCRaAIFIECAu2aQPdt2IB0EwJFoAgUgSJQBFqEQLfzvNmgh+YGBIpAESgCRaAItAiBruIZ2KCH5jQEikARKAJFoAi0CIHO5nmhIQ/MW569ECgCRaAIFIEi0CIEqkFvQEMemAc9KyNQBIpAESgCRaBFCFRc5BnWgAfmMk8vBIpAESgCRaAItCiBLuV5OvOHZUhJy7cIFIEiUAQKDRKoONnzacYPy9WePggUgSJQBIpAEWjRAl3N80imD8oIzz4lXkAEikARKAKFBgm0h+fsTB+UJzyrIlAEikARKAJFoO0QqPhVmq3l9qDsW8LgjkARKAJFoNBggU7tOTOzh+QhzzIlX0AEikARKAKFhglUbOIZnNFDsqNnYgSKQBEoAkWgCLTdAp3Gs18mD8g1nlk6cAERKAJFoAgUGijQURK9tMYPxpeeBzxLeLojUASKQBEoAkWgZQlUzO15vKYPxuuedTp4AREoAkWgCBQaLFDN3Fb3PFWzh0KD61EdvoAIFIEiUAQKDRboKNawKPP3ZQ0eCJXr278CFxCBIlAEikABgX41E/2+59kaPBAHWxSEQKAIFIEiUASKQDsuUNHTotTfoxV9EF7zbOOZoiIXEIEiUASKQAGB/j+a2S3qOa9iD8EtFhuGJq7QBUSgCBSBIlBAoP+DduceUIGHbajnBCu/yhACRaAIFIECAm2JjS2Kz7/dgRv/Cs9OnikregERKAJFoAgUEOhYmTCJQkUX7kmzwnb8wB9ZtFq71nOMZ46KX0AEikARKAIFBDrOzGNx/vIZz8cF/aDqDDMgLdUuV6MLiEARKAJFoIBAu4xqz6qji85kvuf5IM0gNRAM8wz/r3yW8mn6+4amP6el4X9buX08ESgCRaAIFBBoxwTaLS3talfsVBY7d/W+dA/Pnyzem17g+bvnXM/fPMd7DvRsYbEpaIb053V8pnsNL6B+9p+nLwIIFIEiUAQKCHS8kAAn8vSy6Dfa2zNdiv77tOl/nyLN3HpkcAH1+26TZuFNGYz+lQSHQBEoAgUECuONZs7rWWd2KHcq15fwuSJQBIpA4dvYAIHWG82iF/e80aDB6GoEikARKFSAjRFovdFAr56qgxo0GF2JQBEoAoUKjL1bliDQg/mo28+rCBSBIlAECqWhDaw7lyDQA/mo24/awI1swECk87qnIlAEikChw0zu2bfN943Gn735qNuPCkB81ICB6BXP9ggUgSJQ6DCzev7S5vtmsGc3Pur208fzeAMGops8CyFQBIpAocNo8+adbb5vtDl0Wz7q9qMzsIc0YMA/Pb17QKAIFIFCJ9nUouJdO++b1y12+kIJLOy5K+NB6I2Slm8RKAJFoDA2VMHuhBLum4FWzxKztUTl7S7NeBA6K924CBSBIlDoJCqg8HIJ982LFq/noCS05fnDDAcg1fr9cYmfIwJFoAgUxsQ+Jd03EuikfNzlsYDnmgwHoFM8syFQBIpA24aOZcxu0ZRjxbR0uJJnac98npnT39N0tAfj+BLuGR1LvIePu3y2tvY1HO9EhqSHukwQKAJtgkBVClRtIZe0aIuo1yQPWBzgV9tHtYh8wXOD58T090iu86Y/18va39ihaqzhua+Ee0Yricegs/KZMd3sX2Qw8Ohb2H4WXXQQKAJFoMXOpJa1OBrW1d9H/ZXVFUlnFHWsLJfuVt+GZuhlbdTU8u2m6Kx8NPir1+mDGQw8ahQ+dwe+5SJQBJq7QNUTeWALX7T154al2ap6Li/XgLH1yhInJhL1DAYdQW3O1spg4FnH2t88G4Ei0KYJVD2Enyvw99Ny7wDPk2m590jPRh1YOWonK6RZYZlFY7qjss6hZtsH1Hgw37mDNxACRaC5CnRdz0MlrBzpGt/i6eeZo+ZjqY6S3OH5rKT7Re+ej0BhnWdKK2fHWNED+eEVWAZHoAg0J4F2T0uCt5T8u3/sudZzbMoOFqcF6sJSnn+W/JndaRx7qgzaKaeqGZ/XYKDRjtvfVWDpB4Ei0NwEqk1De5Q4ixpT3vZc7dnfs36S6SQVHTt1lOf6kj8f7b6lB2jFmDANjoMrPMi86TmsIg8TAkWguQlUX0ofs2rtztczf2V61aT9DtoVPH1FJh2qQXtbBz4T/TuXRFnVRDfqWxWV5z5WnZfmCBSB5iRQ3c+Leb6s+Of0msUGJIlU50ynsPI3Efb2/KyDk42jLfavQEX5QRLWiAo8MFpWHpq+fVYJBIpAcxLoxJ7NKrB825Xca3EGfIW0KjVJEks7zptOkD4jvSM+0+L8eSd+Z60O7Iiiqr+cu6Dnggo8JH+2KNE3QcU+IwSKQHMSqErw7WpRAKEun5lkouMxeif4fspV6ct2kRLVqtdWFjuT3+/wZ3Qzy7f1QRWLtMPskg7cKKcnifeu6GeDQBFoTgLVbvxf1Uyg3xTNoF9NX/6LEI2O15yRVuRGVuD3+znLt/VDlX629Fxewg1yeVpKmq3inwkCRaA5CVTvEvfMQKCjv/p5OM1ItQmpv8W7019YdG1azaIIviYIK3s29Gzr2ddzavr79efuTrPcKvxO51v9z8s2Gm0nV/ECdT55pMAbXe8yTrZ4MV+X818IFIHmJNBe6dkenvFn/HmaST7jud9zu8WOVnU0ecLzksUxuSrW+9bS8bIoKA80wK1tcRZJ39bO9Vxm0SbtpvSt7VHPs+lm1bsDHfz9V/pWd5Hn7CRNbQLoa/GCvk4gUASak0C1LLhx5gKtc05KzwVkih7AaZNUtCyiOrs/8mziWd2zuGfOtFSUAwgUgeZ2jGURq9cu3CZEx4pUP1jt4ah7C9mAQBFoboUUJvU8bdU/C9qkqBvO5gy3gEARKAKttkC1irRTw+7pKket4E5hqAUEikARaD26sUiibyKvSuQ+i+NFAFkKdO4GCvR4BJp9OzPt9hyAwDoabcbswzALOaOzqm836KFW26ljEGgjGmrrvdvriKwjUVPuHzC8Qu6oLubgBj3Y71o5bZQQaOfRjk8da7kOoZUana/f2mJDF0DWaKB/q0EPt3YE7oxAGyHQUSzkOa1hXxQ72XFqS4ZVaArdGjawPGVR8gyBNkegQhuL9kmz0VssiqR8hPAKzTPpM6ZYAjQGdXx4rUEPuapJLYhAGyfQ/0ab51QZ5xWLTiicG20tAzzLM5xCEwV6q1WjS0MZUSnGMrrjINB6oOo4R3ges6gzq/7BXyShjjTEOC41bl9Lr0W6MZxC0+ieBpD3GvLAX2bllBNDoPW5/7XZZRqL1oc6/qKGEOdYs3ant9IQfFarXx1wgELQt8ZFLTbXNOGBv6ikzxWB1hd1dZk5LfVvYXGeEVn+b872zMMQCk1nAotuNJ9m/sBrRrE3AkWgXfyCqQL16r+5W5qZPttwceqMpxqXz8XQCRD80PNC5g/+zRZHGhAoAh1f5vSsY3GW+EKL3bxNusY3WHSo4n0nwGjMkAST88N/fJptI1AEWtQzs67nMM9Zniss3/KBatp9rGdhhkqAb+bsjAd3bZLausTPEoE2jwktOsHcka69zlfX/XjMq57+nvkYHgHGzk8t36IKZ1rU/UWgCLTdTOVZzfPrtOSpDXqq0FOXwg1qQfaG53bPDkZhBIBxolems1CdVduq5M8SgcIo9NpgCc/RFmcmq3rGdGTKpUYXFYDxQhskHstsYP+LZxYEikA7iAqWTO6Z3rOWxfv4dyt07VQ84mTP6p5prZyz0gDZoUPl/TIa1LV8tlwHBgQECmOTqTYg6XjM2p4905e8+0u8VlpOvtbzG896aYY8I+IEaB0d9bgxk0FdZ/cm6sBniEChK19aVc1nKc8mFkdkVDHrxQKvjc54P25x3nuPtNK0gMX7WgAokO7pm/Ggmg/o/0jLUZ0AgcL4onemqtG7QZqdHpxWhU6wOHuqjjJ3ps/78RSdR1VZvVs9V1kUfDgy/dkDLDYDrWlxjhUA2oxqW+7qeb+GA7ne56j82vwd/PwQKLSD6dPMcaX0JXfDJFotw/b1LGNRXo+ZJUAFONzqV2he38SX7fDnhkABAMD+WhOJjkjLWZtV4DNDoAAA8BX9rPrLuQ941qjI54VAAQDgK1RkYe8KS1Tl01axKKeGQBEoAECl0MYE9Ud8qmID9wWeJa28QvEIFIECAHQZSUrLpJdUYMBWoet9rJpNfREoAAB8Ixoo+1mcORte8kCthsZ/tOhLWFUQKAAAjBV1pT/UyilDNiQJ+0c1+FwQKAAAjBM6d3lREumTntc9n7c4IGvD0kueBz13JVH3rsnngUABAKDLzGFROkzFqt/2DLWoxSmhqkrQf7dyUnsnneH8zPPxaOL8g0V3iDoWuEagAADQZbqljKrp+RPPcRY1PNUqTTV2VZhBHSHeTaK522JjUj/PuvZ1Z4huNf0MECgAALSEJDiJZ0qL5VeJcWaL7hOK+nTOZFHjU4Xf1TOxZwa/twT6ZAMFOi+3PAAAtCpQCWVkgwT6gJXfuBwAADJDPR5vtni32xSB3pNWEAAAAMYbLVurd+OnDRKoyin24NIDAEArTGTR0PiDBgn0Si47AAC0iora7+QZ3BB5DktfGAAAAFpCS5nLewY0RKAve7bnsgMAQBHoDOsjDRGozvEuxSUHAICi0LLmew0Q6GWWx/ldAACoCN/zPJ25PHVUpx+XGgAAikTnIm/JXKCPe9bkUgMAQNFclblAT/dMzWUGAICi+YXnnUzlqYYAu3CJAQCgHehM6IkWZyVzE6g67CzEJQYAgHahhuO3ZybP4RbFIgAAANqG2rodbPkdXenDpQUAgHazsuVTWEE1fpezaJoOAADQVtTibAvPJxkI9FeeibmkAABQpkQPrbk8L/FMx6UEAICymcbTv4bi/MLzD898XEIAAOgU03turJlAVVFpaS4dAAB0mu94/mlxHKTK4vzcc49nPS4ZAABUhV6eq5OkqirPmy123AIAAFQG9QzVxqKLKyrQazyLWjQIBwAAqBwzeLb3vFQhefazWGZGngAAUGl0rlL9Qy/rsDjv8KzlmZZLAgAAdULHRHb3nFeyOLWh6ZeeZbgEAABQZ2b1HOC5zeIMZrvE+ZDnKM/ifOQAAJATS3iOtShicL3nXs8r4ynLNzz3eW5I/7yTPWvyEQMAQFNmplt7rk0ifdvzoUW/UR07GZH+8zOLhtfvegZ57rJYop2TjxAAAJqMWqTpfOYenlMtmltLkvenWabOb57jOdBiU1BvPjKoKv8H8HgzMfCAx5UAAAAASUVORK5CYII=;" parent="1" vertex="1">
          <mxGeometry x="874.47" y="340" width="48.03" height="50" as="geometry" />
        </mxCell>
        <mxCell id="5OMFKONNakUogNdtF4Db-34" style="edgeStyle=orthogonalEdgeStyle;rounded=0;orthogonalLoop=1;jettySize=auto;html=1;strokeWidth=3;" parent="1" edge="1">
          <mxGeometry relative="1" as="geometry">
            <mxPoint x="760" y="369" as="sourcePoint" />
            <mxPoint x="870" y="369" as="targetPoint" />
          </mxGeometry>
        </mxCell>
        <mxCell id="5OMFKONNakUogNdtF4Db-35" style="edgeStyle=orthogonalEdgeStyle;rounded=0;orthogonalLoop=1;jettySize=auto;html=1;strokeWidth=3;" parent="1" edge="1">
          <mxGeometry relative="1" as="geometry">
            <mxPoint x="761" y="431.5" as="sourcePoint" />
            <mxPoint x="871" y="431.5" as="targetPoint" />
          </mxGeometry>
        </mxCell>
        <mxCell id="5OMFKONNakUogNdtF4Db-36" style="edgeStyle=orthogonalEdgeStyle;rounded=0;orthogonalLoop=1;jettySize=auto;html=1;strokeWidth=3;" parent="1" edge="1">
          <mxGeometry relative="1" as="geometry">
            <mxPoint x="760.47" y="491" as="sourcePoint" />
            <mxPoint x="870.47" y="491" as="targetPoint" />
          </mxGeometry>
        </mxCell>
        <mxCell id="5OMFKONNakUogNdtF4Db-37" value="" style="shape=image;verticalLabelPosition=bottom;labelBackgroundColor=default;verticalAlign=top;aspect=fixed;imageAspect=0;image=data:image/jpeg,iVBORw0KGgoAAAANSUhEUgAAAKcAAACnCAYAAAB0FkzsAAAACXBIWXMAAC4jAAAuIwF4pT92AAAJ3ElEQVR4nO2dP2xb1xWHb4o2RIHGCuApCAhpYAqkGfySIU0my7MLWEC3drAMZDdHDgQkIxq4Rc4cwNKQbC1koJkjTW6zlBraAgEHGUzhyYAVFA2YDAoOcZjIFPnuuX/eez8rvw8QJFGPj4+P37v3nnPPfXrp7OzMEYLIL/ipEFQoJ4GFchJYKCeBhXISWCgngYVyElgoJ4GFchJYKCeBhXISWCgngYVyElgoJ4GFchJYKCeBhXISWCgngYVyElgoJ4GFchJYKCeBhXISWCgngYVyElgoJ4GFchJYKCeBhXISWCgngYVyElgoJ4GFchJYKCeBhXISWCgngYVyElgoJ4GFchJYKCeBhXISWCgngYVyElgoJ4GFchJYKCeBhXISWCgngYVyElgoJ4GFchJYKCeBhXISWCgngYVyElgoJ4GFchJYKCeBhXISWCgngYVyElh+aT2wcb/zqnOuSHgjw/bO6FmTJ6JVDOQ9bDjn1pxz6/qw/LzqnDvS3+UYh865w8mwd5j6muN+Z92wWU6etXdGw4qO96S9Mzqp642Y5VQxv0h5sXG/I98eywevXwd1CNsqBpvOOfm6XrLZ+b/dcs5ttYrBqRyjc24vQdSkcxbB0bkLL4hxvyPn6EHJc44TG6ggmujWpZW6rSfhZNzvbGurnB2RslUMTvS1ysRcxooe6xetYnDYKgZ1t4J10/W83rVxv3Op5TyPfPhb0o3mfNOtYlC0isFQpVzNtNvrKumuDg8uFXr+rxnek0/gbKAERCLQP7VbSUK78EPjiY7hruxfLoDKzkYzWKXbqKqnmwctWn+Q0oJKq6at5Urew7rAtcskqMq2Ydx8JWDbJBBTSQcxT1Ix7+Y/nKWsXCJBNwIv6Fq69txy3lvw9VAjdCurod27duV1ijnjsggaKlstgVFIKslLe2e0vWwbzZ9tG6NmOVl7ltdUMcrSH1Ujgu5JJD8Z9halxW4YX3/XM07eN56ToNRcQCA0T1fTc5WRVc4y2jsjCVLWx/3OnqZnypArc82Y8I0aBmTmml54F1ogfd9exv2OT6oT674Cie2ip4FRlXnq2uSc0d4ZbRqvVtmmVM5WMdhelir6/dUn7tP3P7/w+JdPX3N/enTTe5yjP3yy8PHO3z5Y9pS7Mu6dDHu1zaCkEhgIzTMLjEw9XAy1y6nsGrrioqxV1Fyj96r/69dvuK///8qPv//329+YDvDjr9557vc/tr9yr//6f76n7dYVyWYiNBCaxzz8iqEpOXN0T13Lif3L+LfuH09fW/bnI51Hf6YXQzFrieflfO/qE4uct1rFYO0Faj19F/eRJ0aQ4dd6RcONZuSUsaTOs6eQMhi/p/PlFyTSKUpr4LaIbp2zKLEYh1azlrFsu81Mjc0FGslzpqYhVKCYaUlJab09Gfa2l7VuUuAxGfZk/3ciD6/SCDYjvgvoWKubdj3b3a5qxqipJLxFzrIoMGZcJxVGku4xlZNNhr29SEFX0POexkBoNpY80HNXRiUXZFNyLs2HnqNMIu+H/59vrro/P7o5/a5shI4FVdD78vOH/3pvuj8j6EGRJRCayqmpIl+6rpJhTO1yap7T1yWfegbZ3vHgN9+/PA2E5LsM7BPqMeVCOhXJSwKredBnjHwy7c/lL31d+2oVRdW1ySkHP+53hoYEvPOkkNYiXt53cpeisz6hiX7YkjpjIPTc+9Wxp28KOnvXnjVal8LhBQ8/l6IxUtbtB8s5GfZ8+dL1sm30w7JcVDOQW05fq/m4vTNadC7kAv+o5HkSGHVzzhjlTiVtZdjH/czrVI6X/UHFnNZ+torBHR1jLiL0hFddshdFYCC06PEyOZ22ntG91DxoJXPHxmAphDKx1s91cZeywn0OcyA0j7aIDz3PzRoYIckpYq5XUEiwtIvVrvzOuTRTo6tDa8Anz0NPr+WbqswaGKHIuV+RmE7zjktbRO3K1zz5z9AxZEj9ai3EBELz6Fi0tsCoaTll7vaGVCoFiBmzJrt0nGVoMUPzlohz675WU9J3liIO3zbZZoyaKvyQbrSICXxEJF1PHhJ0bMdWz+hUaeg8e/RNDarAWho37ncsuWCLeFkCoyqWadw3bJe6SMr74b955an77P3Pp99lLKS1nzFMT3L/rb9P95fr+GrGEgit6EXo+6pt+XBWOWWZRntn1DUK+tG434kV1JsUv/Kr79y7V59MvytbutbITKsY/FiR87srT6f7M1JJlU4CdVdJZQmMKhlzqqBHhk33IiuUYpdmPLC0oBJAyR0+AhPvM46R6jkT1gilkhwYVRkQbRiqWaQrOQgdQOuHb5F/EdKCnuitap6bbdI7hexqQBNbz1lZZXgkTdWWJgdGlQVEEn1rt+27kdWqtoSh3cBegkCrs2UirWIQuYuFnCLJmbhGKAdJgVGl0bpUFo37nXuGac3rUq0kKSXrviU/WbbAbcb8IrfUBW4edsES+alrhFLpwsrpNEjScc8tz6bSDRwac20zNpe1zFIq9+WCErd//1TfWcqi53o4zTmvnAlvkUdiS7/mGZevpqwxqivPuanpFV9lktwraWi9+anUaLaKwcNF4kv9paWFXEbEczeRWk1jILRXdiMMw2u8aggao9cY1TJDpLM/1rGPDAVCyuI2AaYL9z0ld01gCYSSxsf6ue57NosOjGqbvtTW0LImJyiC19bKkhmoCkkdQS1qMwZCR5lKEy0XZdT5qXVuXceTvivNaXdkHr9p0cZ6A4Iex97iumKiS+NCMRaDRKWzmij86JYVAJ/j9pLK+oU0IOgxcJmdt8gj8z2mfPuKmjGqXU4dp2waJdoKmeJUQQuj/Cncnwx7BaKY1tK4zOWJll4uuGtvpGROx5/Wgw2a4pTZIxFHi1Byt6LSfd2YDHvId/SwHFvWlJeOXX0NQnBg1Fg9p45VrBVMMVOc29qKWsa4PkRKWWO0luN/E1WFMRB6nPJ/ikqwCB90UYfkOZ8lzGcvRApENG1kEa8bur5I5+BlDn12o9ONgCnP2bjsoKY0kU8YS2RdGPZT1fTqgaE3DGpgXjo7O0s7pBcQLSBeW7LMWD7cE+tta0h1/CzlJC8G/MesBBbKSWChnAQWyklgoZwEFspJYKGcBBbKSWChnAQWyklgoZwEFspJYKGcBBbKSWChnAQWyklgoZwEFspJYKGcBBbKSWChnAQWyklgoZwEFspJYKGcBBbKSWChnAQWyklgoZwEFspJYKGcBBbKSWChnAQWyklgoZwEFspJYKGcBBbKSWChnAQWyklgoZwEFspJYKGcBBbKSWChnAQWyklgoZwEFspJYKGcBBbKSWChnAQWyklgoZwEFspJYKGcBBbKSWChnAQWyklgoZwEFspJYKGcBBPn3A/xZPzYsrg9ZQAAAABJRU5ErkJggg==;labelBorderColor=none;" parent="1" vertex="1">
          <mxGeometry x="874.47" y="399" width="65.53" height="65.53" as="geometry" />
        </mxCell>
        <mxCell id="5OMFKONNakUogNdtF4Db-38" value="" style="shape=image;verticalLabelPosition=bottom;labelBackgroundColor=default;verticalAlign=top;aspect=fixed;imageAspect=0;image=data:image/png,iVBORw0KGgoAAAANSUhEUgAAAgAAAAIACAYAAAD0eNT6AAAACXBIWXMAAA7EAAAOxAGVKw4bAAAgAElEQVR4nO3df4il133f8bfd2xZuHFeYm7IpkvLYNSZeJ9fFNMEyo7Vxgo1G6+KWxEIjBf8ItvGsHFpMiTwi5I+grNJiWjqSixOcOKxk4TQJJrOSsGiLZ7VExi0i2njWxTTOVBKdJVnMVtbMH+3A9o8z13s1mh/Pj+/5nvM85/OCgxJZc55zfz3n+5wf3/M6RCSVEfBu4E7gPcAEqIAxcBm4ClwCngKeBnaTtFL22/+5vQ04sfe/7QCbwHPc+Nyu+jdRRERyNAFWgesNyzlCgCBpjIGzNP/c1oGFBO0VEZFMtO1A9pdVQhAhPkbACt0/tzVg6tx2ERFJrAK26N6JzMoW6kw8TAhP8Faf23Vg0fUViIhIMgvYdiDqTHxMsQ3a5suK4+sQEZEEpsTr/GdF88v2KmCbuJ+bggARkYGaEL8TmZXK5yUVYUy8J3+N4IiIFMB67vioskFYrCbdtdmh0aVoQaeIyIAs4tuJXAeWXF7ZsMVcr3FYWXV5ZSIi4sJrCHm+bBOGr6U9z1Gb+VI5vDYREYksxdP/rCxHek1LhEREGwlf25CLRgFERAbgHOk6kjXj11KR7qm4pLJd8/MQMfO61A0QGaDUQ/E/RshJ31UF/LVBPVLPOwlnP4i4eH3qBogMzJT08/DvMqrnD43qkXqUz0FcKQAQsXVz6gYAtxrUsQScMqhH6nt76gZIWRQAiNi6KXUDsFlRfodBHdJMDt8dKYgCABFbVeoGAD9uUMcvGtQhzViM3IjUpgBAxNa11A0AfmhQxwmDOqSZl1M3QMqiAEDE1mbqBpBHG6S5zdQNkLIoABCx9VLqBpDHKIQ0t5W6AVIWBQAiti6nbgDw7dQNkFYupG6AlEUBgIitXeDRhNe/AFxNeH1pZwe4mLoRUhYFACL2nkp47a8lvLa09/upGyDlUSpgEXsj4P+QJiPgT2AzAnDdoA6pT2mAxd0odQNEBmgX+CTwmPN1HyCP4f++z2V7Z0B8FHX+IiKDMcL36FzrA4jatmPdsA2peJ/mWLm8KhERcVPh14lYHyRTcgAwIWzJ8/jclpxek4iIOFukn51IyQEAhFMdY39uZ91ejYiIJLFMvE5kJVKbSw8AIAQB28T53FYdX4eIiCQUYyQg5vCxAoCgwn4th4b9RUQKUxE6yK4dyDrxF44pALhhTBiut/jcps5tFxGRjKzQvhPxmjdWAPBaE8LQfdP3ZIMwAiQiIoXrMh2w7NRGBQCHGxM+w1VC575/ncAWsEb4rKo0TRQ5nhIBifi7KXUDpJMd4Mm9Mm+897+J9ILOAhDxp+N6h0mdv/SKAgARXxp1E5EsKAAQ8bWLpgBEJAMKAET8aQpARJJTACAiIlIgBQAi/jQFICLJKQAQ8acpABFJTgGAiC/tAhCRLCgAEPGlXQAikgUFACL+NAUgIskpABARESmQAgARf5oCEJHktCBJmhgD7yOccHYL8AbgFeBFYBP4NnA1TdN6RVMAIpKcAgA5zhj4GHAXcKrGf38ZeAz4XRQMHES/ORERydqIcJ75/rPOm5SzhABCXm2R9u/pslMb27Zv3al9ItKR1gDIQSrCsP4jdOvA7wf+FlgwaNOQaA2AiCSnAED2WwD+GjhhVN8YeAa/J9c+0BoAEUlOAYDMWyR01jE8QpgSKJ3WAIhIFhQAyMwUeCLyNe5HIwG7qRsgIgIKACSYAN9wutYjhGCjZFoDICLJKQAQgM9hN+dfx+OO18qR1gCISHKaj5SKMDTv6SRhu9jLztc9yDXgWeAS8C3iD9HrNyciWdDNSD6X6Lp1kgp5uXfvn5eBuwnBQCxaAyAiWdAUQNlGwH2pG5GRk8DzwFLk62gNgIgkpwCgbO9O3YBMPUaYGolFawDKNCEsgJ3u/d8iSWkKoGx3pm5Axp4A3hGhXv3myjAiBNh3Es7SOGyR7WXgzwgLY2NOPYmIvMoa7XO+l1Cq1u/s0XQWwHCNCFNIbc7Q2CJ8N0RcaAqgbG9J3YDMvSdSvVoDMEwLhDM0HqPdGRonCCNPGyhXhjhQAFC2KnUDMvezkerVGoDhWSak0bbIpzFbjKrRAIlKAUDZctiHn7M3RKhTawCGZ5WQ4dLaE8BKhHpFAAUApftB6gYUSHkAhuUscbfSPkj8balSKAUAZft+6gYUSmsAhmEJnyyaj6E1ARKBAoCyPZu6AYXSGoD+mxA6Zi/fQNNHYkxfqLKdJwwxih/95mxVwBsTXNf7d3MC+BTwRefryoDpZlS2S8AO7bYsSTtaA9DdAvDrwPsp67v7CPAVwm9WpDNNAch/SN2AAmkNQDtjwqK7Z4DTlNX5z3w4dQNkOBQAyBcSXfd24O86lNu9XlADWgPQzpfwP7o6N3enboAMhwIAuQo84HzN88BFwnB47JJbrgNNu7WzyI1jm0tW6siHRKAAQAD+PeFQEi8fd7xWbrQGoJ0vp25ARt6augEyDAoABMKiovfis7joTsKoQ8m0BqCZCTYpdofi5tQNkGFQACAzV4HbIl/jHuDJyNfoA60BaObnUzcgM1XqBsgwKACQeZeBNwNXItR9J/DVCPX2jdYANFelbkBmNIIkJhQAyLxdYJNwCt55ozpnQYWe/AOtAZCuNlM3QIZBAYAc5CrwIcIWuraLA68QhvzfgW5Y++kJTrrQFJKYUAAgR7lI6MBvBx6m3tTAo4Th/lvQkP9hdAOXLjx37MiAaT5S6ri4Vz5LmI+9GbiV8CR7ba+8RLgxaYj7aPrNSRc7aERNjOhmJE1tohtQFwqQpIvfT90AGQ5NAciQ5Rrgag2AtPW11A2Q4cj1BiliIdenba0B8HMe+E6Een8N/5S8FwhTcSImFADIkOX4/c6xTUP2OHEWo75IOJ7Xk/eZHTJwmgKQIctxBCDHNklzXyQ8kXt5FD39izEFADJkuT5taw3AMHzU6TpXgE87XUsKogBAhizXp22tAWjmEuEJ+AJx0lS3tUnIkRHbbfgc1CWFyfUJScRCl+/3BeApq4bM0W+uuVkeinkTwiFB/4TQQb4f/0V5ENp1O/CNCNe/AnwQbbsVEWllClyvUbaAVWCR+B1JtXetOu3aX5Yjt22mTduuA+tO7TtIRXh/1ufas+R47Q3av28HvY8Tp7aLiAzOiKMDgHVCh1Elat+Y0EHNd1gKAGzM3tup4zVHhM+nS8e/vVeHRopERDo6KAA4h2/HUEcFnCV0AH0OALzal7MxsEIYVar7vm0Q3rsU0xgiIoOzfwTgLP04W/6op8hcA4CzaMj6IBXhM1sF1ggd/cbe/71K2hEoEZFBq+jnk9WEg9cJ5BYAqOM/nobzRUSksSmvXlyWSwCwQX7TKCIiIoOzxI0FYh40zy8iIpKJMX5P3Yc99VdO1xcREZEEDto50bd1FCIiItKQhvxFREQKNOv8F1M3RERERPxcBxZSN0JERER8aYufiIiIiIiIiIiIiIiIiIiIiIiIiIhIjl6XugEiPTUFbgZuIqTH/cm9//tWwul4bwJ+AHwf2CScDb8JXANeAv4nsOPb5KQqwvt1Kzferwp4CzfeKwjv17W98grwQ+AC8BxlvV8iIpKJCeFAnnOEQ3nqHpd7VFln2OfBLxCOC97C5v3a2KtvER1BLCIikYwJHc0qdh3YcZ3bCv0OBkbceM+sgqSjyhYhIKgcXpuIiAzchNCpxO68juvYVujP4TtTwshIyvdsDaUtFhGRFirCk2vKTmx/2SZMO+RqQn7v2Sx40hSBiIgcqSL90+txZYO88vKPCGsXUr8vx5Wz9GcURUREnFSEYePUnVSTco70892L+KyJsCrbaGpARET2LJG+Y+pSVghP4V5GhMBj3fA1eJd10gdPIiKSyIT8h/ubdGhew9sLTq/Jo5zFN3gSEZHEFvDZmuZZNoi/2K3voyWp3jcREUlsTH4r1S3LNmEbXgwrGby+Pr5vIiKS2ITwtJe6s/Eo1rsEhhw0zZect1mKiEgLJXX+lp3ZmP7tjuhazhq8byIikoEJ/dqqZlmWO7xvY/q90r9LWUOLA0VEeq3kzn9W2k4HDGWHRNtyruX7JtJLOg5YhqQCngVOJLr+DuHI3+/v/f9vIbTJOxvdDvBTwNUGf7MMPBKnOYc66P16E/BG0mXwewj4fKJri4hICxW+T/5bhIVydY+mnXDjeFyPtQnr1B/Snjq9Z/PHHx/XwY/23q9lwvC85xbOLtMoIiLiaIRPp7rBjQ6sq4r4pw7WWdwWe8pkm/CeWey7X8BvmkLpg0VEeiB2R7pOvMN4xoQOMtYT7nEdWawV/7OOP8bCusle3bFHfHI6gElERObMholjdQBr+HQCI0IgEOvptjrkurES/azgN4cf81TCbcfXISIiDUyI8+Sc8gS5Rexf0wav7chiBE5bpHlqjnnGw6rj6xARkZpiDF+vkT5PfIwkRhvcWHwXo/M/R/qn5QXiTAtoKkBEJCMxhn5zSgvbp6Q8Oa2an2D/vm2RPrgRESneiHCTt7zBb5PnWfEj8k/Lm+Nq+RH2C0OVLlhEJAOWN/dcO/+ZEfmOBOTY+c+zPspYpweKiCRk+fS/Rd6d/0yFbyKcOqUv8+KWU0Xrzm0XEZE5Vk//fen8ZxZJ3+nPSk5rJeqw3O7Yl8BHRGRQxtjdyPs4nBs74VGd0te58FVsXr9GAUREErB6kstp1XoTqdcDrMV/idFYvnd9DB5FRHprjM08eJ87MQjTFqkCgNT5EboYYffeKTmQDIKOA75hDLwPuIlwo/hx4IeE40qvAd8kHF8qaVgcV9vmmNwcLQJPOF/zDPBF52vGsAI8aFDP3wV2DeqR41XAyb1/3rL3714k3Je/A1xK0irpvdlBLHWHBmfHmSopiD+L4du+LV47iudUwIbTa/JgdXJk7lsg+25KWG9SJ7PjNjeO5hY51ohuJ7DFPOlMXsti69+We6vjinkI0v4ytJXvU7q/J+fcW12Gim7nOsQ8uVMGYIpdvvAttCDIg0VClyE9/c9YnxdQQuAEdgsC9QBgyzJnwzn0+cg+sfZSa+gprq4nvW0xzJuBR26AFbdX48vivdOTpo0Rdts058sG/V64Koas04LuL0N8wsyBxfB/X7f91RHj9Lv5MuQbaNf3boNhBpaeYm9t3WbY32GpwWu+VE8EtqbY3ByGfAOIGdgOcfh/nsVT5wZhlGRpryzulSlaLFxHjCd/BWryIxV+edQVbXZTEW6i57B7sh3SCvaDjIj3/e57zoTjeKVX3iB0dEv0K/10bLFHZeeLFm0Wquv8sb5o8UwIN4FV4g1l9zV1bROWi6fmy9AT3limlm5Stgn3iUXKHSWwPtK7TtEIbWEstvu0KdoZcLRFfFawX6eMBZpWWRL3lyGvnZjx+h4eVdYor3NKca7F0EcDZZ810v2g5dVGhKf92IvW9pdSgjHLE+9mpYSFranuEQeVLcpINJbi6X9Wcn4gmBJ+x6uE7+XGXlnb+3fLaAqptpRfsusM/0dc1yzpknfHPyulrMkYYfselxLEeixCa1NWGe7NPtaUVZ2S2xTthPoZD2dlAyWiO5bnApODSglPT0eZpVn2WoB5WClJhU0QsEU5gVPKzqhuh1XFevGJpDzR8jp5dJxjuo/abaF+5lDei/8O+uGWaoF0T/z7S2kmtH+qLTHFde4BwKysMIzPJdXCy/mSer1Fhf1onUac90m9uKfUBScx5qK7lFJVhM/iuKet2Yr0JYbRwTSV2/f1qLJF+s6rq1QLs+dLysWtsXLSbDG8kaJOUg89b8d/iVmpSD+0d1ApZSj7OBXh5jMr84lqSuz4Z1KsRu9a+jwt4HmI1WEl1dbg2K9deWjmpP6SXY//ErPhlVClTanivWwZgFwXAdYpfZz/Tb026zpppmcrfB5KN2gwHfD6rq9KijYm3ECfSN2QI5xM3QDJWpW6AR08Rvj9lTyC08Y15+uNCPdIj3n6k8DvOFwne6mnAIaeR31C+nUWdUoJmQClvVwWq3Yp6/Rn6LfEKYAUox6l5D85VOrOaciLACf058a5Huk9kP4bkf77aVW2yX+B4Igw4pL6vfJcBBjzrI6jSq08HkOeAniu8OvHMiF0qidSN6SmU2iIVA42pOmhMfAMea8L2AX+JnUjgEuO1/oUabbonabGKMBQA4AR8HjiNqS+fgyzzr9vN84PpG6AZCn3J+Y2HiPvaa8d4HziNnzL8Vp3OV5rv7sTXju51AknhpaYYUz6aZW2peSkTHK41MnCYpacg4CUOwE87wWp+6AhT0PXkuoHPrQOZ4z/Hv/ZIRhWQcfQAjLpxuLmvMZrh1kne/9ukdAJpzxsaKXrmxRJKYcB5bA9ui+LQ6OoSPOmV/FfmhvPzn+LcNOq9rXBYq92CUfbSn1dUwBvUT+oHBGmG87ivyAs1yAgRQZG7wXBOaSZHuI0VyPeiT5WfV6WG48nmHMcvWDFYiXtFloMKIHF96lNQDnixrHYntNpOQa/Y/yDIe/OMIcskzkff+xigt8XbWinqMWOYDeo/6O0+DHlvEJa/Fh8lyx+5wv4TVPmGAR4DpGneDDLIctkjp+7O68DKIaUfKEi3vu0TfPO2OIzVK5ssUhEYz2UPMVnRCC3p8ERPlMB66QZ/cshANBDz57Y0WZuP64uRsS7IXU5utKiTbUSZMggWQ07x7qpeswZV5Ha3kXMacaUo7I5nDRZ/BqAebGCgKG9ybG+uF0XJFndIBUVl8nqiSzmjpKJYTsPKqmeho8yIs5r3iDtiF8OBx9VsV9k31gOt20wvDc41nSJxQiJ5fahIY3YyPEqbL43Xlt8Y3YeueYIsHzNORySVBHvM6xbUr8HWeo699RmDrsPxtjn+N/CNkiyfFIY2siNHM5qmNkzcJwS78yNXL/7E7otjNwir9eW8syUoeWjMVXR/o0d2la/GettK9vYj5BYJxHJ6WYh8VjM/afYSjpLv23dOeS8ILZiOJ1eyq2AQ3xINVPR/o0dYgBgfUxnjM5/xnqNQqx2Sh6sTv1LGSzGmCPPdUFsRfvXlFsAUOHT2R90/1X20yNUtH9zhxgAWD9lxNwSaZ1EREcGD1tF9+9IDvPmMYKAHJ8SK9q/ntwCAEizHTDHzzUrFe3f3KEFANZP/x5PStZbppQwY7i6jgA0SfsbU4zV8jk+KVYMKwDwPvtAWU9rqFAAMGO5D9ezI7UctdAowLB1+Y7ntk7EOntgbucFVAwrAADfLYFDSkgXTYUCALDd9ufdiVqneVbUPFxtb8A5/tZH2CfPyWkUoGJ4AQD4LAjU9uaaKhQAgO3TROXbdMB2+kKR87A1/a7nMvR/EOstuzmscZipGGYAAHHPftA0ZgMVCgAq7L58qRadWOYTz3VblNho0mlukX9AaJ20K5fvf8VwAwCIMxKgRX8NVSgAsFpQlMN2oq6R9bZ/kyWBCcffgLucV+HNcjFsLve1imEHABCG6i2mL4eYjdZFRf9/KF1YrUzNJaFI13nRHIIY8VMRAoFzhLUr64SRpNyf+g9iuR6g8m36gSqGHwBAt7NpttBTfycVZQcAVsPmOc07dQkCKv/mipiwXAybw72tQgGAy3339RaVSC89YFTPV4zqsbAL/HPgQsO/ewjYNG+NiI+rwCeN6voE2g1TDAUAZZpiM8f5ALBjUI+lXeAO4NGa//1DwG/Ea46Ii68Clw3qGQMfMKhHekABQJlOG9Xzu0b1WNsBfgW4HbhyyH9zZe9//zwhaBDpsxHwaaO67jaqRzKnoZ4y3WNQx8OEocecXQRuAU4CP0OYW9wE/hwN+cuw7BK+7xeAUx3rupcQTOQ2uifGFACUZ0LoELv6gkEdHnaBS3tFZOg+CzxvUM+HCdMKMmCaAiiPxfzeo+gJWiRHl4DzBvVoGqAACgDKc4dBHY8b1CEicfxHgzpOk0d+D4lIAUB5/oVBHd80qENE4njaqJ6fN6pHMqUAoCwW2/8uoMVBIjnbJSzS7ep2gzokYwoAymKx/e9rBnWISFwWv9OfMahDMqZdAGW5zaCOJw3qEJG4LhJyXZzoUMf7jdoys0i9lNs3GV9XDqEAoCxv6fj3V9Dqf5G++GPgvg5/PyYsBLTK9/EZ7JKQiQFNAZSl6vj3f2zRCBFx8axBHZYLAa8Z1iUGFACUY0T3BYAWNxQR8fEdgzr+iUEdMwoAMqMAoBw3G9TxgkEdIuLD4nCgtxvUIZnSGoB27gN+yela3wPea1CPRQDwkkEdIuJjlxAEdEn9/YtGbQEt7suOAoD2uqyu9TYCbjWoRwGASL/8V7oFAG+0aojkR1MA+bP4Ae7SfQHgDjo2V6Rvvtvx77uuG5qnEYDMKAAoR9e5vE2LRoiImxE2C++sgoCu25Dr0ChlAwoAytF1CuA5k1aIiJddbAKAf2hQB8CbjOo5yjMO1xgMBQD52zSq520d/16RtYh04bFuymLnQzEUAOTv00b1dF1L8EOTVoiIp5dTN2CP5VqCwzyMpiobUQCQrx3CaVwXUzdkj5J4iPRPLqv43xq5/ivAr0e+xuCUHABspm7AES4AP0U+nb+I9FMuK+8t8pAc5jLwQXRMeWMlBwAQOtrcPAT8AnYHcFjJ5UYiIvVZ/G5fMajDMqXwzA7wAPBO4FKE+gev9ERA3wBOpW7EnDuJd9zuy/jMw8mrTYHnE1x3B/gH5J27YZVup9U1cR74kNO1cmIRAFg8jJwnjLpeI7Rp9k9a/rtvG7WraKUHAP8GuIdumbIsXAFuI+60RNe5wJ80aUV5PpnoumPgA8QLKC1oVCm+rr9bq2H1S+gpPTulTwHsAncnbsNl4GeJ2/lP6f70r5t1cyP8nnAP8pmE15Y8TDv+/aZFIyRPpQcAEKLSN5NmPcB54OeIO5Q1xeYYX4uzBEoyIjyBp3QamCRug6TVdYrz+yatkCwpAAg2CSfu3UPYS+qRTOJhwpxkzJWry4T5Z4u5/66JhEqzSx5P4B9J3QBJxiL4+45BHSLiaAycA64bF6lvgv3736ZsxH6hHcT4jh5W1pxeUy5GwCLd37cl74YXpMvns2zRAI0ADE8F/BVwb+J2lO5TqRuw5yTd54Glf3aBOwzqecGgDsmUAoBhWQT+mjg5t5Vko5nPpm7AnFQ7ESStTxjU8T8M6pBMKQAYjiXgiYj1//eIdQ/NFJ+DT+q6D235LY3Fzh+ANxjUIZlSADAMK8Bjka/xtcj1D0mOT9ypdySIrwWjej5nVI9kSAFA/60CD0a+xg7wR5GvMRSp9/4fJocdCeLn7Ub13AecNapLMqMAoL9G+KVS/WWUdrOuXLfdKSdAWSwXft6PgoBBUgDQX/8On87/DHmnk83Np1M34Ai5BieSv/sJDxwyIAoA+uks8Tv/HcLhRF+MfJ2hGBGesHM6XGq/M6kbIG5i5N2/DwUBg6IAoH9WCNF4TI8CP4We/JvYJZ+9/4dRToByWKT/PojWBIgkskTcbGnbhFwC0s4W6TP/HVdyeoJTJsB4RsT9PppkoiucMgFKbVPibvU7j576u1ggr73/h/kEyglQgl3gVyPW/wh6WOi92AHABK08tjAh3pAehLnhD6GV/l3clboBNY1RToBSPE3cdR9PoCmlXrMMACaEYYk1wlDydeBv98pseHmdMIetL019I+BPsMnqtd8OcDta6NfVmDz3/h9GOQHKsEv4bccMAr6BHvKKNiV0+k3nMLbQEFIdZ4kzh7eBfrhWYq/NiFFy+Oy1BsDPAnpvc5N8DUAXE2x+wBtoROAwU+L8YM+heWBL66TpxLuU5DcQFAB4q4i3MHDF72UMRvIAoG0nMCXMSVsMS58EngfuAb5qUN+QPB6hzofJ66S6vqvIe+//Yc6gqZ/SbAL/mHCux2njuh8ELgAXjeuFMAr6zyLUm9qbUjegjS5Ry3FF+0tvWEbvbx+s4PcUa11Sj7xpBCCdGO/9FnFGFqsIbe17STKCF3MeaVZK76RmGeX0vvZDzL3WqxHrntWfkgKAtGJ8v2JNBcT+LfStuAcAFTdW98cuSz4vKVttFlWm+FGWLnZAHCMQnC/bpF0LogAgrdmBYtbvdYyRpSpCO/tc3AMA74VOlcuryo/1FEvqp7whi/lUMuuwrIPB/SXlThwFAOnFCALWI7VVowA3imsAEHPe/7ByzuWV5WWE7SjLOlrtH8uYuN//2ShYjLUg8yVlx6gAIA8j7B/wYgSWsUfE+lRcA4CNSC+iryXWYhfL/eTb5LHXe6hi7/2ffXYeN71U3xMFAPmYYLueZSNSO2PlRelbcTsLYIGwVU9uWCVk2bL2gGFdt6HUvjF9OmLdl7nx2V3d+/9j+kjk+iV/Vwn3DCsniTMK8IUIdRarTgDQlxznnn43Qp2WgdYZ4pwHLkFF3L3/+w99inkIFMRNFSv9sQncaVjfvzWsa+YqIZdJ6dzu73044tSzxBpKtFrsFWvoTW6Ivfe/2ne9WBkh50uKnACaAsiT5WK7GKMAHtvRcy8xzoZ5DS26eG2JsUWxMmxf6uQuJYgZFG8luOZ10uwWUQCQpzF237dYDyQlP5ia7bI4bgrgH1ldaEC+HqFOq/nkh9DQf2wLwImI9X/lkH//xxGvCfAJtGNEgh3gl43qirUWoOTtzR+1qui4AOBmqwsNxAXCj8PSGLjfoJ4rwG8Z1CNHi7n4D8IZ6wd5KvJ1x8AHIl9D+uMidnPtdxvVM6/Uc2POENZquOjjMacxS4y9l1Y5FkrPnugh9t7/6xz+FD5yuLb3MLmmAPJmOQUcY866j6dwti3bRBhJOW4E4Jr1BXvuyQh13mFQxw7wRwb1yNE+HLn+Rzl8e+kucD7y9U+j3BFyw1XCtKKF9xnVM+9LEerMyRXCPeEM8BPE6X+O5LH6uC/lsMVZXVksZlGufx+xnziOi/A9RuQ8M4xpBCB/VqMAJWZ27T3tAoj7BbZ6f/XUFl9F/O/YccOkHr9Hz22kCgD6wSr7nsvWNanvuCkAjyxkffFshDotFl09jDL+eYi9xqLOAluHNtkAACAASURBVNOre/9dTCfRVlJ5Navse7Gn0KShOpkA/yx6K/ohxvY6i9SbXzOoQ4732cj11/kcRzX/u64+6XAN6Y+rhLnormLsBpDItA4g3vCVxfy/9m7H55F5rKrZlsqhLdv4fK80BdAfFruVtt1bLUeq8yO/RBh2jJn7/DAXCPOeVxP/8/vY7/+v6J5Q5jxxDiWSV4u99/8y9ff2bhJWB8dMRjTLCeC+6liy9TThHtjlQWjMjfuq9EiKUYCzLq8sHYunStczoQvlsfe/6S4OjyNRPZ6YNQLQLxZnBCy4t1oOVWcNAIRRAIs5oLpKyGp3q0EdFw3qkMON8Fm41HR//2HZAi0pJ4DsZ7H+JMVIshyibgAAYRjUa0fAL2M/5J6bmwzqUN7/uHaJP/y/Q/PP8SI+v4+POFxD+uNbBnW83aAOMdIkANghnBUd+8ZzD2U82d7S8e+vmLRCjlIR/4nl91v+3Z+atuJgZxyuIf2xS/eHwF+0aIjYaBIAQFiAdBvxgoB7KOeQh64HLX3PpBVylNhP/9D+kJ/HTVtxMOUEkP3+a8e/P4ESAmWjaQAAYbjyp7BNSLID3E45nT90nwJ4waQVcpRfc7jG0y3/7puWjTiCcgLIvO8a1PEPDeoQA20CAAjbOH4BmyHChwkBRQnD/vPe0vHvXzJphRxmgfhPKl22ce4QPysgwCdQrgm5QeuOBqRtAADhxvVF4MeAB2g+LfAo8GZChrUS94W+qePf/9CkFXIYj+H/rsP4HlkBZzkBRMDmweONBnWIAYvIfgf47b0yJWwfuo3whFvt/TebhGQ6m4Q5z6dRAhvJ1xi41+E6bYf/Z7wS9XzG8VqSt1cM6lAAkAnrob1LaIiorh/QLZvbj1s1RF7jYw7XuED3ka9Nwqrsk51bc7RZToASR+rk1SwWgCsAyITm9tLpejPtuotADuex/c1q+P4x4EGjuo7yEcKUn5TNIgCwyIEyRGPgfYSR81sI9/hrhFGXFwkP16WtlRusrmlQldo0jgqf1LSVUXu90nRvGLV3nlIB91PXzyL20dp9MiK8H2vUe++2CSmZTVIqawQgnWsd/17DaHF4LP7zvI6VWU4ATfGVTXv47SwCX6bZVPAYuG+vnCcswNdvsoe6HuiiozXj2MbvqbRvZbXD+3oQjQD0j8WIU+kHAo2p/8RfpzQ9TOxHumwDlG66buMbYzeMLMEiesI5inICiMXao5JzmFTAXxEW1lp5kBBQNL53KQBI5y8M6oi9+rs0d6duQOaUE0AsFvD9jUEdfTQF/ppuu78Ocxr4bzQM0BUApGNxsuLtBnVI4LX3v+8+k7oBklRlUMfQT3o9yAR4NvI1TgJ/0OQPFACks0n3H8J7DNohwcdSN6AnZjkBpEwf7Pj3XkfK5+ZP8JlevBdYrvsfKwBIq+vJWqfQzdiKjr6t7yOpGyBJjOl+PHaJyaSWiH+s+LxHqNkvaEFPWs/SfTGIErR0N0XrKZo4g75zJXqfQR0xtqzNUtDn6oEE1/xNwjk7krEFum8BiZGgpTRdt2SWWKat3ulX0zbAflml++cQIwmQRbuGWKrj3jhNAaT1nEEdswQt0s4I+LXUjeihT6ZugLj7JYM6uh6AdZD3R6hzCBaP+w8UAKS1g82iGG1fa+8DaO9/G8oJUJYFum9fu4z9GoARmr47zF3H/QcKANJ7xKCO+9FiwLa0ra0d5QQoy68b1PFnBnXMU+d/tFMc83CjACC9PzKq53NG9ZRkQt6Lh3Kn4KkMFTa/k2cM6pi3i9IKH+etR/2PMYfwKsI+9dsY1vGPn8Y2kcVVwqEOXX9g9wNfoMxtNm1pO1s3s5wA+s4Nm9XDxTeN6pl37DB34dwPjZtge9BBbiXGKtZFo7ZZH9YydBuk/z71vdROOnIA7QLI3wSb9389QtvGRm0bcjmyv7KeAlgA/pZhD6taH+M6wm5l7H3ogKC6tPffhhIoDdsfGNXzJaN65n04Qp1FsQwAxsA3DOvL1SlsO9ndvfKwUX1/aFTP0GnnhA1tQx2uRWwe5nawW+s0744IdQ7NC0f9j5YBwO9QznYq61EAgN8zqucU3YZlS6C9/7YUTA3PGPhPRnU9SHjIsTRCh3fV4XL08oj0cx2eZZs4Cygt107oqexwVmsuVLr9HrQGIF+W2fVibFFeMmzfkMuRv0urTqy0udTZHugnjet9ALv1E48D78Q+8h4Cz+1rDzlea7/7na4T6/cgaSwS1hNZeJQ4u0RijMIOzaM43f9LjMZiPVFYRt7nIrWxz6xWNdcpMVY+N7GF32tt83vQCEB+pti+7zFGIivjNg61HLtjzWoNwJD2+dd1mjhf7i8Y1nUvsGJY3xB47v3/muO1DvIVx2vNcgJIf02wXch9gTin/ynp2fF2gK8f9x8pl3c3q8B7jevcJAwbWw3fPgj8BRqenfHctpb6PX8Cv2kA0NHUfTYC/oTu+f7nxToG9/dIH1w38SX8p8n/NbYJ6460TPrhjlTl2BOXWogxTK2UmfbDm0eVLafXdBTvxblNj6bWFEAeRth/FkpKdoPFse9NSu1FuToLoLsvYz+SchX7J9VniBOs9InnEbZfcbzWYXYJC4G8KCdA/4wIyX4st9TtYHN40FBcxHcx8AdxXvxd8gjAdeKkB4Y4qWpLDQJGhMjY6zuRy4iL95bHsw3aphGAtEbESdte6j3mKGPCouDY3/MkOWBKDwC2iZMEqYrU3hJ/oJ4d4bbTa6rDO196k5wACgDSidUh6X0+3IS45480nnbRFICNMfAvI9T7EnEWrT1BebsDPPf+/6njtY6zQ1iN7WWWE0DyNQH+GyFrqLWPR6hzKK4CP0ecabkzwGeb/lEOuwDuwe4wnKHZJayqvgv7H+uDhKOa78JxtWgiE3wPqHrc8Vp1fI04N/vDfIb0OyDkYAuErX4xRizPoKOhj7MD/ArwXcI92KK+DxLWGSTTZQpgNhw9H4yMevjvYpoQb/56g+GfIOg9RZXbmRgVvq//OvVyAmgKwFfM34He3+YmdEv8tkweD/EmAYAcLeYWtm2GHQTEnHfry43Q8z2Y3ZyOowDAx5i47/UW+QW9fVIRfi911mSsERadz95vBQAFiRnBDzUI8Nz7X7fjS+Esvu9DnZwACgDiWyB+SujK68UUYEy4Zy0SOvolwmdYkUlnfxAFAH5i3siHeHaA5dkKdUqu6XC9A6HrHJ8TQAFAPGN8vvu6f4sCAGcxb5xDSuSSeyY8b555EK5zfE4ABQBxLOLzWec62iU1ZTukIEf6OHArcVZ2nybOAR4p7AI/5ni9/+t4rTb+AfD3HK933PvxcfyOdc39s7EwIWT189jx8gA690H2aATA35g4C7uGOA0gMnRT/I5/Li2HyGApEVB/7RCSSlgnebnVuD4RiWsKPI/tSX6HeQj4bYfriAMFAP22A9yBbRDwgmFdIhKfV+Kph4DPO11LHCgA6L8d4BewCwK+a1SPiMS3hM9Z82dQ5z84CgCGYRf4qFFdnnnjRaSbux2ucSda8DdI2gUwHJtG9XzLqB4RiS/miv8dwnkhQ9kVJPtoBGA4LFJxnieMJohI2S4D70Cd/6ApABiOtxrU8ZRBHSLSbw8TdhhtJm6HRKYpgOH4GYM6dISrSL/sYHsQzz3AVw3rk4wpABiOnzWoY5PwndA0gEg/vIxNAHCZsNhv06Cuw0yAf7f3f98EXJv750H/zvJ/ewl4Bvg2cNX8lRVOmQDTW6Nbdq/c89iLyGtZZANdI/7D4BT/syiOymSoh1+0BmBI3tjx758zaYWIeLJ4mv04cUf9FgmZCi2nKrp4kNCeXE/udKMAYDje1vHvlQBIpDw7xB0SXwGeiFh/Wye5MR1RLA2D2BkR5puauoZN9N11BGDToA0i4uvlxH9/GM+TCdu6l5BGudjFzwoAulkgHGf6Ltqn4zyDTZatXIbXRMTPteP/kyP9wKQVr7YAfIN+3JM+gwIAaWgM/A5wn0FdmwZ1WHyOXW8kItI/1sP/K4Q59r54f+oGpKQAoJ2ngFNGdV02qqerWEOBIhJPLoH7GNv7opcxYbqiyK2BWgTY3DK2X/KXDOrQvn2RMr3S8e+tAv/foX+d/8wbUjcgFQUAzYyBRwzr20Gdt4i017XzshpB+IRRPeJIAUAz7zKuL6dh91tTN0BEGpt2/HurAKAPC/5kHwUAzVgPcVmuwN3p+PdttjCKSFr/NHUDpL8UADTzduP6LBeebHb8+1ssGiEibkZ0f/LuuoZgpusDiCSgACAtyymArsHEzSatEBEvbXOPzPuhQR3SUwoAhuOFjn//iyatEBEvFkG71gAUTHkAhqPrdsITFLwfVqSHKoM6LhrUAfBmo3ra+i1Cal9pQAHAcDwD3N+xjp+n4LSYIj1jsSbJKhHZplE9beWSEKlXNAWQVtcDfGZGwLcN6rndoA4R8dF1C+BllIekaBoBGIZdwtD9Dt3m4t5j05xBGAHvBu4kzLW+BPwl8DSaJsnNBPgIYSfLzYSnwacIQfFQP6sx3bclP2fREOkvBQB+LvDaVf/fMb7Gn9JtHuwU4cZS8paeCfA5jp5OeYgw51jy+5SDMfAvOfjwmdlBXY8Cv0H6IWprHzao41mDOkRYBq63LIsJ2tvWOdq/zsqhfV0+h1lZdmhnjkY0e/+2CMGCpDEGNqj/ea0yrM9rje6/9QX3VsezSt735ixpDcCwXDKo44xBHX2zBLxIs3MeTgB/gkbRUvkSzfbB3wf8LeG42r5vWRsDpw3q0RRA4RQADMu3DOo4SffFRX2xQHiKfIzQoTd1ijAVIL6WaT/V9SAhEFiya447i+H/y2gKq3gKAIZlF5ttPXcb1JGzKWEI9Rm6Z1P7WOfWSFN3dfz7MSHo26BfU5AzFr9PPf2LAoABsjiu+Nfo/zDpQcaEucLnsRlChTByUBnVJcezWP0+cxJ4ghAM9mV9gNXw/1MGdUjPKQAYnj8yqGO2unpIpsBfcWN1uCVtn/RjfSQ3hA71f9GPRXEWw/8AXzeqR3pMAcDwXAXOG9TzIP15KjrOMuGpv808fx3KQubH8gCteWPClNBZ8l7Y+WmDOh5F8/+CAoCh+o9G9fymUT2pjAnDuxbTIkfpeg6D1Pc/I9d/P/BfyDP4XcRm+uNLBnXIACgAGKansYnw76O/OwJmQ/5Wc/1Hid0pyQ07xH96PUWYEshpgeAI+LJBPVewOwBIek4BwDDtAv/BqK6DsqzlLvaQ/7yH0HCqt086XGNMWCB41uFadXwKm+/zVwzqEHkVZQLML9tU1aGt+0uf9kx3+YzalByHioduRLMsgF3Lqs/LOtQEu9dS+TbdjTIBtmAxAlABdxjUI7Y2CecPWHiM/H8kI8JNwPNM8NsZ7mEzOdsl7IW/4nS9+0g7EvCbRvVcYHhnIkgiI8KPomtE2qc9uH0aAYAwD2715LBB3rkBLL6LTd6LyuVVyVEm2OTEr1tWfF7Wq1Qt23pQ6dNIXlMaAXBUYTsEt00/9uD2LQAA2yHxc85tr2sF304g50CoREuEw5k8Pn/vKUvLAGfI31sFAE4WiPfjyj1C7WMAUNVoW58/o5jfx/kytNPkhqbpaY5tyzZ+3wPL15N6HUNsCgAiG2HfmRxUcl4U2McAAOyHx3P5jMaEG3LM7+MaukH0xYjwnYg9HbTm8FqsA9uhB68KACKb4DfMluve874GAOND2tSl5DBlE3PF/zp5vEZpZ0K3TuG4shyx7VWP2poLBQCReS622SLPdJx9DQAgzvBoyg5y6Yh2df3u5TLCIe3N7h9T4m0ZjDGnPjZub673UmsKACLymmedLzlGrX0OAEbEGcFJEQTEei1rDHuhVKlmW0Stvy8xdgVYj2qVEswqAIjIM+nGrGyT3824zwEAxAvkvG8yMUYzUmzxEl8xRo2s7lEj7Dt/j7UKuVAAEEmKp/9ZyW0UoO8BAMRbKe11ipr1wr++bEEVG1NsR48sAscxYc2J9W+yMmhbXygAiCTmQprjyrrD66ur6480l2BmRLz1HOvEX21suedfCX3KNDsl0up71GUUwHrOf1ZyOcPAQ0W391APAEfwWvl/WMlh+8oiNk+duXQ4E+Jtn4v5RD0ybPcqZSyOksNZPdy0zY1REafzz3H6NIYRdg8EXiOYvVIRp5NoUlIvYomxpzj1a4L4UzsxEucsGrZNZITN0HubufZYu1hyub/ENsE+eMrlAS0bKef/ZyXV0HnMofKUr2ueR+Y0y9dp8Xmso0hfbrDKb1I32I19fkEO95XYKuKNTG+jIAAIN0mrJ64uJdVclsfahxwidY/8Dht0f60WR6J6pnGV/rB40KnT8cZ86r9Ovmd1WBoTf1p6C90nAJ8nxBy/1LF/qPOl8nlJh4o90rH/h7VMu/lJi7k+LfaRw3SdCtjg4JGlEeF+EnsrdSkjW173qlLezyN5doSHFe8RgMqo3U1uHCmNsJsLbVJWqZ/y2SLxT047SiQ/FqMA82tLJoSgNfZZFdcp54nV+4G0hOmUI5W4BiBmfvnDSg4n7MXai1zn5nWWMEVw2E1MT//djQgB1xLhN7W8938vUMaK8Tosvv/b+CdOy/XsFEsxzjOpU4r+bVSkedPni1fn6HXa4UEll3zdqYKA+bK914Y1whOVxc205Kf/BeoNm27QfnpmKHKY8mxaclhH5CH2CY+HlZLyKRzIYwjrqFJFf4U3pEx6lMsPOYcgwLrkMMLire1q85IzI1ak/642KSWlr07ZD+XwcJZMyk7Re348ZdKjnPamW2dKS11KmB+dZ7G1LZeA1FvqB566paQn09RT0aUGxEDarYCeEe404uuoU7bjv8TGUg27WZbUiyxTsFrHUlrgBGnWADUtpY1opb4PlRRsvUaso1dzuwHlsOOhiv0iW8ghF4R+vPVZ5EuYlRJXQVueNWFdSp2eST0lOdg1RK+v8d/sAr8auyEHeAi46ni9yvFah7k5dQMO8CTwZuBy6oa09EzqBjj7acO6bjOsqy+upW7AIS4D7wAupm5IAm8r/PrR1AkAIHQC3h3Abzlf7yedr3eQN6ZuwCFeAn4OeDR1Q1p4OXUDnFluCXuXYV19kWMAcJ7w+9tM3I5UThR+/WjqBgAAd0ZrxWvdDuw4Xg/gJufrHSSHNhxkl/B5/ApwJnFbmnopdQOc3WVY10nK2xaYWwDwEPAh/O+H8mpF7wSY8ViNmWreMfVCk+v0Z+X1hLS7Q5qUkjqwGMlS+vKdtJJ6MfB8KW2x32Fy2JkxSE1GACDMP90ToyF7HgK+GLH+o7yY6Lrz+vK0ehX4LPBO8l8bUNKT0/si1Hl7hDpzlsM6nPOEdTdfTd2QTGwmvv6VxNfPzhT7qCxltJvLyYd93Xa1RB5RejGR+wFGxBmVKW0bZcpsgFuUN+JSR+qcJGvxX2L/TLDZM7tOHrmsLbdPlXijHeN3+EmTUtLcXaz3vqRplFRTWyuU9T43kTpFc4nbYWub0i5Cszgj3lrK/aZDSes5O/409d7dWamivtp8xJy7zu13Gov3qZjb6PyFOip0D8nehHDjX+PgxEGzQ16WyfcNTRlp5jAKYm1K+sWCpXReMRexlpRMyWMEa3bwUkmjU115n7A4/1lJDQd9mce8dl475y/9mDRD2EOfYxpzIzj0fm9LGL4boZughZjTgFuEUb7K68UMTKo1WqU8QMieFCmBh/j0v98s8BsTflRn8RluzemQpVg8vrMlDFNbvo9bhDVSy5Tx+/bgPQpQSuArc0b4ftFK6KCOUxGCgmVCYHAOu9GCwebxnuMRSJUwkmLxu19FT/mxeJ8KWOK5C0L4AXvNBeY8JZLaCJu57cq53Z4qfG6GQ38asuhczrm3ujxe67RKCHjlCLGjzW36u+/fk8VplEPZYXEQz0WWQ34ishhx0lC/j9jfeY3KChAvCNhi2E+l1roe0brNMEdavHNXDPUJt6L7ezP0EZKcxEp6Nev8h3ivkBZGhJtD1yfQ+bJGGQuqLFnscR/iat4UWyyHOGpl8T5qyNif9eJXfYZyoFmWuy5fri10uEcXXYOwoW21rPDv/Id4k7Qa5RtiYNQHbRPR7b83aPpGjjUhLEpr0hkp6YcNi8WAQ5rDtkjD3aZsebw4JxNsFvsOLbjsowWaBwJrDOue0NjrUjegx6bAaeDtwE3AW/b+/fcJp1d9F3iS9CdZDcUC8EzHOnaAn6D/JwROgecTXv92wsmgfbcOnDKo5x50cl8uxoRTMW8nnOx4KyHQuwq8QDhx9Rngm/T/PiBSFIuntb4vZPPOUzHUJ96uU3rzRWt6REQis1r01ucFgTFz/jcpfR46tdzdoy1jIiIOKuxu3H1ctOWdCe2oskU/n3wrbJN89fF7JCLSS1ajABv0qwMbY7sd1aL07ZTABWw7/6HtiBARydYI2+Q3G/TjCc77nPompS/bp6xPk1MabxGRBCznwXMPAkakOUa5btkm/6yWMfLH93kNhIhIb1mnwM05NbN1tr9zhBXwlnkEtsg3iIqRLbHvO0lERHrNchtXrk+y1iv+989ZW76Hua2pqIg3cpJrsCMiUoRYi+JWSD+3O8a+81o/5FqWawvWSd85jom7VVLpvEVEMmBxSNBBZYt0c7xT7AObo46eriJcK1WehSVsV/nvL33b9SAiMmjWJ4LNl1V8h7VjLFa7zvEdcozrer53U+LvkhhC9kMRkcGJeSzuNmFaoIrY/kXi7fGv+9QaowOdnYAZIxAY79XtsUMit/UNIiKyxys//jp2HdqI0PHHbHfdveoj4h8vvEr3nAGenf6sHDV9ItJrOg1QhqLC90ntYeBZ4DvAZWC3xt+MgQ8DdwD3xmvaj7yZZqdRLgOPxGnKj1wA/hx4kdC2y4QT2va/fxPgpwmnuVWEUzc93rP93glcSnBdkegUAMiQWBwZ3NYV4HuEzuIV4A2EjuuNhM6swncYue0RtRvASeO21LFDCAgq8hluv5NwpLeIiPRATgfmpCpdEtVU5HfmgHfZRpn+RER6Z0S87YF9KOfonsegIu52upzLBvklhBIRkQYqyuvELM+mryjv/Vsjn+kHERFpaXZyYCnD2dZJamY7A0oJAlZJnwFSREQMTfDZIpiyxDyXfsrwg4CY75+IiCQ0Jm6yoJTFIzf9UIOAlCmfRUTE0SLD6sg8c+5XxE+361nOoiF/EZGiTPDNJBejrJNupXrMsxc8ygbdMxKKiEiPxcy/H6tske6kvXkV/QuiZucSiIiIAGEBWB+mBc6S3xa1PowGzDp+DfeLiMhrjAkn/uUYCKyRd2KaCSH5UOr3aX/ZQB2/iIjUNCJ0GjlsG1wnj+H+uiaE0ZTU753FqYMiIlKwKWHY3XOdwDqhE+378bNTfLddnsPumGYREZEfmRKmCGI83a4TOq++d/oHGRNe2yq279064fPQk75IBzoOWKSZMfBWQgKZtxM6obcBJ2r87WXgOeC7wF8A3yQcg1uKMfAuwnt2C3AzcBPwFuBNe//ND/b+eRV4mXBE8Hf3/nl5758iYkABgIidEaFTm3ll7587vLajHwG7Ho0SERERERERERERERERERERERERkbwNcRuhiET0d1I3QEQ6WwX+PvCXqRsiIiIi8Y24kYdfJ92JSCM6KEOkn8bAU8Cp1A0RkX56feoGiEhjFfBX+Hf+s9S+IiIi4myRg/Pje3TM471rraFFhyIiIi4m3JjvTx0AXAe26ddxxSIiIr2zSOhwjzohzzsAmD+KV6MBIiIihiqOfurPIQDQaICIiIiRirC3v07Hn0MAMCvr9CMQmAArwHLqhoiIDNGY0BmsEp5i14GNvX+eA84CC2gr6rwJzTv+nAKAWdkidK65TQ0sEhYwztq5mrY5IiLDsv8mW6ecA6YpGkt42s7FEu06/9wCgPmySrrPlr1rrxCCkoPaJiIiHU0JT/dtO7BZIFA5t/s6YWRihbQdFQwzAJiVsw7tgzDqsET4Lh23cFIBgIhIRyt06/j3F8955IOuv0Z4TYv4DWOPGHYAsBaxTcuEznyjYZsUAEjRNP8qXYyBLwH3Gtf7BPAA8NvG9dZ1eq/M7AD/HXgBeAl4EdgEnjS85q5hXSV5F/BIy799xbIhIn2jAEC6+Bqv7igtPQj8OPD5SPU3Mea1aXcvYxsA6Lfo7w2pGyCSks4CkLbOEq/zn7mfcnLPawRARFwpAJA2Fgmds4fHyGulfiwaARARVwoApKkR8GXna/6h8/VS0AiAP60BkKLpqUOa+hRwwvmapwgrtod8w9Zv0Z/WAEjRdNORpv5touvel+i6XjQCICKuNAUgTSwQVsSLPQXjIuJKNx1p4s7UDRgwjQD4y3VKaQL8NHArcBNwba+8RNh+qu+KmFAAIE38s9QNGDD9Fv3ltAZgCtwNfIzj19icBx4Hvk5IUiXSiqYApIkqdQMGTE91ZZoS0iQ/T9haW2eB7WnC9thtQhpkBY/SigIAqWuE5v9j0k28LCPCzpbn6ZZQ6xFCauoFi0ZJWRQASF03pW7AwGkEwF+qNQAT4L9gt7PlBPAM5WTNFCN66pC6NNf4as8Z16ffor8UawAqwqmFMUbTZlkzUx2iJT2jEQCpSwHAqz1rXJ9GAIZvQvjexJxKexCNBEhNCgCkiSupG5CRi8b1aQRg+P4AnyyajxEWF4ocSQGANPGfUzcgE48Cl4zr1AiAP881AEvEPz1z3uOO15KeUgAgTTyVugEZ2AH+VYR6NQLg7w2E9z12GQO/5/SaZk6iqQA5hgIAaeLrqRuQ2GXgHcDVCHVrBMDffcD/cyjbpNlC+wUUWMoRFABIEzuE4e/SXAbOAO8ENiNdQzdqsXYCeHfqRki+dNORpn4DuDfBdd+Z4JovE/KvezydawRAYrgL+wWrMhAKAKSpTeAhQtpSL2ewX3SXG/0WJYZfAj6buhGSJ00BSBu/RRgW93Ae+KLTtVLSCIDEcAIFl3IIBQDSxg7wXuIn6AAsWQAABb1JREFUB7oCfDzyNXKhm7TEcnPqBkieFABIW1eB24gXBFzZqz/GivscaQRAYlEAIAdSACBdXCJsi7OeDjgP/GPirbjPkUYA2nk5dQNE+koBgHS1Cfwc8LBRfQ8AH6K8swc0AtCO11qUPnspdQMkTwoAxMIOYaXxm2mfJ+Bh4Cco9yQzjQC0s4uCgOP8TeoGSJ4UAIilTeBXCB35GcJQ/mFmSYXuAX6MEECUMt9/EI0AtPdI6gZkbIfyRtNEJCNjwjnl071/6mn3tUaE3O3XWxaPvO/jDu1bi9y29Q5tG3JZ7fKmyrDpRiwedihrQV8bGgHo5qPAs/gct9snOsBLDqUpAJE8KBjvZpOwc8RqMeoQ7ADfTN0IyZduOiJ50AhAd7PFqF8A3kPII1GlbNCc0wmu+a/R/L+ISPa0BmDYVvCd+99CD3hyDE0BiORBIwDD9m/w3a74q+g7JcdQACCSBz2tDdsucKfTtR4AnnS6lvSYAgCRPOhpbfg2gdsjX+NRyk2mJQ0pABDJg0YAynAReCfhsCtrDxEScYnUogBAJA8aASjHJeBngQuGdd4DfN6wPimAAgCRPGgEoCxXgfcS1gV0GQ2YnaHxVYtGSVkUAIjkQSMAZXoSuIXwBH/U2RnzrhCG+9+MztCQDvTUIZIH/RbLtUt4gv8q4XvwbuBWQhKjnwReAV4ErgF/jtJqixHddETyoBEAgfA9uEi4N+s7IVFpCkAkDwrGZZ46f4lOAYBIHnTDFxFXCgBE8qARABFxpQBAJA8aARARVwoARPKgEQARcaUAQCQPGgEQEVcKAETyoBEAEXGlAEAkDxoBEBFXCgBE8qARABFxpQBAJA8aARARVwoARPKgEQARcaUAQHIzoszOUCMAIuJKAYCkNAYWgXPABrAN/L+9cn3v360By8AkURu9lBj0iIhIYSpCp3+9YVkHFvyb62aJ5u/JrCw5tG/aoX0bhIBPREQKNAFWad+JzMoaoTMakhH5BgBj4GyHts3KNmHER0REClIBW3TvRObL0DqTHAOAivD0bvm5raIpDxGRIixi24HMlxXH1xFTjiMAU8JTe4zPbQ0FASIig9Zl3ri0ICCnAGBCvM5/Vs4Zt1lERDLh0YnMSt+nA3IaARhjP+x/WFk2bLeIiGRiHZ9OZFb6vlUwlwDAYqFmkzK0BZ0ivaA5OIllETjlfM2/BL7nfE1Lb0vdAMKiv/ucr7kKvNf5miIiEonXELKK7QhAm/wMFmXI+R1EsqRMgBLDAnAydSOksQlwb6JrP5jouiLFUgAgMdyVugHSygcSXvsUyhQo4koBgMTwS6kbIK3cnfj670t8fZGiKAAQaxPgROpGSCunE1//jsTXFymKAgCxNAL+UepGSCs57Ai6KXUDREqiAEAs7QI3p26EtJLD53Zr6gaIlEQBgFjTU1wa3+n49280aUU3fU/kJNIrCgDE2rXUDSjU5Y5//7JJK7q5mroBIiVRACDWXkrdgAJdIEy/dJHD5/ZC6gaIlEQBgFj736kbUKCPGtSxC+wY1NNFDkGISDEUAIi1q8CV1I0oyBlg06iuPzWqp61nEl9fREQ6Okv63PhDL9vYH4Hc5TRCi5LDVkQREelggfQd5BDLNrAGrBBnxfwk4Ws7F+H1iIhIAuuk6Ui0laybVdJ8blOPFyciIvGlGAVYdXllw5ZiFEBP/yIiA7OGXyeyjU6Ts7KCbwBQubwqERFxMwG28OlEFpxeUym8grclrxckIiK+psTvRJbdXk05xsQP3s66vRoREUligTBEr86/XypgA3X+IiLSQYV9Z6Jh//jGhEV6GvYXEZHWxtgkCTqHFo55GhE67a5TAmtou5+ISNEmtNtvrg4krRFhyqVpILCORmtEsvO61A2Qoo2AdwN3ETr2twEn9v63K8APgOeAp4Cvk/6wGrlhCpwGbgPeQhiRGRM+t+8RTvZ7CngaHfMrkqX/D7m3YMJUz4QqAAAAAElFTkSuQmCC;" parent="1" vertex="1">
          <mxGeometry x="873.47" y="463" width="60" height="60" as="geometry" />
        </mxCell>
        <mxCell id="5OMFKONNakUogNdtF4Db-41" value="" style="verticalLabelPosition=bottom;verticalAlign=top;html=1;shape=mxgraph.basic.tick;fillColor=#60a917;strokeColor=#2D7600;fontColor=#ffffff;" parent="1" vertex="1">
          <mxGeometry x="944" y="360" width="20" height="20" as="geometry" />
        </mxCell>
        <mxCell id="5OMFKONNakUogNdtF4Db-42" value="" style="verticalLabelPosition=bottom;verticalAlign=top;html=1;shape=mxgraph.basic.tick;fillColor=#60a917;strokeColor=#2D7600;fontColor=#ffffff;" parent="1" vertex="1">
          <mxGeometry x="944.47" y="420" width="20" height="20" as="geometry" />
        </mxCell>
        <mxCell id="5OMFKONNakUogNdtF4Db-46" value="" style="shape=image;html=1;verticalAlign=top;verticalLabelPosition=bottom;labelBackgroundColor=#ffffff;imageAspect=0;aspect=fixed;image=https://cdn4.iconfinder.com/data/icons/essentials-71/24/024_-_Load-128.png" parent="1" vertex="1">
          <mxGeometry x="944.47" y="477.5" width="31" height="31" as="geometry" />
        </mxCell>
        <mxCell id="5OMFKONNakUogNdtF4Db-52" style="edgeStyle=orthogonalEdgeStyle;rounded=0;orthogonalLoop=1;jettySize=auto;html=1;exitX=0.5;exitY=1;exitDx=0;exitDy=0;exitPerimeter=0;entryX=0.574;entryY=-0.037;entryDx=0;entryDy=0;entryPerimeter=0;strokeWidth=3;" parent="1" source="5OMFKONNakUogNdtF4Db-5" edge="1">
          <mxGeometry relative="1" as="geometry">
            <mxPoint x="401.9586999999999" y="387.03999999999996" as="targetPoint" />
          </mxGeometry>
        </mxCell>
        <mxCell id="5OMFKONNakUogNdtF4Db-54" value="Prossesing" style="verticalLabelPosition=bottom;sketch=0;aspect=fixed;html=1;verticalAlign=top;strokeColor=none;align=center;outlineConnect=0;shape=mxgraph.citrix.process;fontSize=14;" parent="1" vertex="1">
          <mxGeometry x="360" y="388" width="106.44" height="126.9" as="geometry" />
        </mxCell>
        <mxCell id="5OMFKONNakUogNdtF4Db-55" style="edgeStyle=orthogonalEdgeStyle;rounded=0;orthogonalLoop=1;jettySize=auto;html=1;entryX=-0.011;entryY=0.61;entryDx=0;entryDy=0;entryPerimeter=0;strokeWidth=3;" parent="1" source="5OMFKONNakUogNdtF4Db-54" target="5OMFKONNakUogNdtF4Db-27" edge="1">
          <mxGeometry relative="1" as="geometry" />
        </mxCell>
        <mxCell id="5OMFKONNakUogNdtF4Db-61" value="Data Engineers" style="image;points=[];aspect=fixed;html=1;align=center;shadow=0;dashed=0;image=img/lib/allied_telesis/computer_and_terminals/Personal_Computer.svg;fontSize=14;" parent="1" vertex="1">
          <mxGeometry x="299.40000000000003" y="480" width="45.6" height="61.800000000000004" as="geometry" />
        </mxCell>
        <mxCell id="5OMFKONNakUogNdtF4Db-64" value="&lt;font style=&quot;font-size: 14px;&quot;&gt;TTYP&amp;nbsp;&lt;/font&gt;&lt;div&gt;&lt;span style=&quot;font-size: 14px; background-color: transparent; color: light-dark(rgb(0, 0, 0), rgb(255, 255, 255));&quot;&gt;requests from the business unit are opened to Vizyoneks Team via ES-CIS team. Vizyoneks enters the definitions of data fields into the Esgate database.&lt;/span&gt;&lt;/div&gt;" style="text;html=1;whiteSpace=wrap;overflow=hidden;rounded=0;" parent="1" vertex="1">
          <mxGeometry x="65" y="305" width="105" height="235" as="geometry" />
        </mxCell>
        <mxCell id="5OMFKONNakUogNdtF4Db-71" value="&lt;font style=&quot;font-size: 14px;&quot;&gt;The Data Engineers team automatically serves data dictionary metadata to applications accessed by end users. In this way making the process updatable and sustainable.&amp;nbsp;&lt;/font&gt;" style="text;html=1;whiteSpace=wrap;overflow=hidden;rounded=0;" parent="1" vertex="1">
          <mxGeometry x="264.7" y="589" width="105.3" height="252" as="geometry" />
        </mxCell>
        <mxCell id="5OMFKONNakUogNdtF4Db-75" value="&lt;font style=&quot;font-size: 14px;&quot;&gt;Data Users&lt;/font&gt;&lt;div&gt;&lt;font style=&quot;font-size: 14px;&quot;&gt;can easily access the data dictionary by the target application to be determined. Target application selection will be worked on (Powerbi, Rota and Co-Pilot Teams Integration)&lt;/font&gt;&lt;/div&gt;" style="text;html=1;whiteSpace=wrap;overflow=hidden;rounded=0;" parent="1" vertex="1">
          <mxGeometry x="621" y="576" width="99" height="281" as="geometry" />
        </mxCell>
        <mxCell id="XRkLUkzq-lyvuVtcWomO-6" value="" style="html=1;verticalLabelPosition=bottom;align=center;labelBackgroundColor=#ffffff;verticalAlign=top;strokeWidth=2;strokeColor=#82b366;shadow=0;dashed=0;shape=mxgraph.ios7.icons.play;fillColor=#d5e8d4;gradientColor=#97d077;" vertex="1" parent="1">
          <mxGeometry x="20" y="66" width="21" height="24" as="geometry" />
        </mxCell>
      </root>
    </mxGraphModel>
  </diagram>
</mxfile>
